<?xml version="1.0" encoding="UTF-8" standalone="no"?>
<!--Generator: Apple Native CoreSVG 149-->

<svg
   version="1.1"
   width="3300"
   height="2200"
   id="svg1288"
   xmlns="http://www.w3.org/2000/svg"
   xmlns:svg="http://www.w3.org/2000/svg">
  <defs
     id="defs1292" />
  <!--glyph: "uni100788.medium", point size: 100.0, font version: "17.0d9e1", template writer version: "59"-->
  <g
     id="Notes">
    <rect
       height="2200"
       id="artboard"
       style="fill:white;opacity:1"
       width="3300"
       x="0"
       y="0" />
    <line
       style="fill:none;stroke:black;opacity:1;stroke-width:0.5;"
       x1="263"
       x2="3036"
       y1="292"
       y2="292"
       id="line1101" />
    <text
       style="stroke:none;fill:black;font-family:sans-serif;font-size:13;font-weight:bold;"
       transform="matrix(1 0 0 1 263 322)"
       id="text1103">Weight/Scale Variations</text>
    <text
       style="stroke:none;fill:black;font-family:sans-serif;font-size:13;text-anchor:middle;"
       transform="matrix(1 0 0 1 559.711 322)"
       id="text1105">Ultralight</text>
    <text
       style="stroke:none;fill:black;font-family:sans-serif;font-size:13;text-anchor:middle;"
       transform="matrix(1 0 0 1 856.422 322)"
       id="text1107">Thin</text>
    <text
       style="stroke:none;fill:black;font-family:sans-serif;font-size:13;text-anchor:middle;"
       transform="matrix(1 0 0 1 1153.13 322)"
       id="text1109">Light</text>
    <text
       style="stroke:none;fill:black;font-family:sans-serif;font-size:13;text-anchor:middle;"
       transform="matrix(1 0 0 1 1449.84 322)"
       id="text1111">Regular</text>
    <text
       style="stroke:none;fill:black;font-family:sans-serif;font-size:13;text-anchor:middle;"
       transform="matrix(1 0 0 1 1746.56 322)"
       id="text1113">Medium</text>
    <text
       style="stroke:none;fill:black;font-family:sans-serif;font-size:13;text-anchor:middle;"
       transform="matrix(1 0 0 1 2043.27 322)"
       id="text1115">Semibold</text>
    <text
       style="stroke:none;fill:black;font-family:sans-serif;font-size:13;text-anchor:middle;"
       transform="matrix(1 0 0 1 2339.98 322)"
       id="text1117">Bold</text>
    <text
       style="stroke:none;fill:black;font-family:sans-serif;font-size:13;text-anchor:middle;"
       transform="matrix(1 0 0 1 2636.69 322)"
       id="text1119">Heavy</text>
    <text
       style="stroke:none;fill:black;font-family:sans-serif;font-size:13;text-anchor:middle;"
       transform="matrix(1 0 0 1 2933.4 322)"
       id="text1121">Black</text>
    <line
       style="fill:none;stroke:black;opacity:1;stroke-width:0.5;"
       x1="263"
       x2="3036"
       y1="1903"
       y2="1903"
       id="line1123" />
    <g
       transform="matrix(1 0 0 1 263 1933)"
       id="g1127">
      <path
         d="M9.24805 0.830078Q10.8691 0.830078 12.2949 0.214844Q13.7207-0.400391 14.8096-1.49414Q15.8984-2.58789 16.5186-4.01367Q17.1387-5.43945 17.1387-7.05078Q17.1387-8.66211 16.5186-10.0879Q15.8984-11.5137 14.8047-12.6074Q13.7109-13.7012 12.2852-14.3164Q10.8594-14.9316 9.23828-14.9316Q7.62695-14.9316 6.20117-14.3164Q4.77539-13.7012 3.69141-12.6074Q2.60742-11.5137 1.9873-10.0879Q1.36719-8.66211 1.36719-7.05078Q1.36719-5.43945 1.9873-4.01367Q2.60742-2.58789 3.69629-1.49414Q4.78516-0.400391 6.21094 0.214844Q7.63672 0.830078 9.24805 0.830078ZM9.24805-0.654297Q7.91992-0.654297 6.7627-1.14746Q5.60547-1.64062 4.73145-2.51953Q3.85742-3.39844 3.36426-4.56055Q2.87109-5.72266 2.87109-7.05078Q2.87109-8.37891 3.35938-9.54102Q3.84766-10.7031 4.72168-11.582Q5.5957-12.4609 6.75293-12.9541Q7.91016-13.4473 9.23828-13.4473Q10.5762-13.4473 11.7334-12.9541Q12.8906-12.4609 13.7695-11.582Q14.6484-10.7031 15.1465-9.54102Q15.6445-8.37891 15.6445-7.05078Q15.6445-5.72266 15.1514-4.56055Q14.6582-3.39844 13.7842-2.51953Q12.9102-1.64062 11.748-1.14746Q10.5859-0.654297 9.24805-0.654297ZM5.83984-7.04102Q5.83984-6.71875 6.04492-6.51855Q6.25-6.31836 6.5918-6.31836L8.50586-6.31836L8.50586-4.39453Q8.50586-4.0625 8.70605-3.85742Q8.90625-3.65234 9.22852-3.65234Q9.56055-3.65234 9.76562-3.85742Q9.9707-4.0625 9.9707-4.39453L9.9707-6.31836L11.8945-6.31836Q12.2266-6.31836 12.4316-6.51855Q12.6367-6.71875 12.6367-7.04102Q12.6367-7.37305 12.4316-7.57812Q12.2266-7.7832 11.8945-7.7832L9.9707-7.7832L9.9707-9.69727Q9.9707-10.0391 9.76562-10.2441Q9.56055-10.4492 9.22852-10.4492Q8.90625-10.4492 8.70605-10.2441Q8.50586-10.0391 8.50586-9.69727L8.50586-7.7832L6.5918-7.7832Q6.25-7.7832 6.04492-7.57812Q5.83984-7.37305 5.83984-7.04102Z"
         id="path1125" />
    </g>
    <g
       transform="matrix(1 0 0 1 281.867 1933)"
       id="g1131">
      <path
         d="M11.709 2.91016Q13.75 2.91016 15.5518 2.12891Q17.3535 1.34766 18.7305-0.0292969Q20.1074-1.40625 20.8887-3.20801Q21.6699-5.00977 21.6699-7.05078Q21.6699-9.0918 20.8887-10.8936Q20.1074-12.6953 18.7305-14.0723Q17.3535-15.4492 15.5469-16.2305Q13.7402-17.0117 11.6992-17.0117Q9.6582-17.0117 7.85645-16.2305Q6.05469-15.4492 4.68262-14.0723Q3.31055-12.6953 2.5293-10.8936Q1.74805-9.0918 1.74805-7.05078Q1.74805-5.00977 2.5293-3.20801Q3.31055-1.40625 4.6875-0.0292969Q6.06445 1.34766 7.86621 2.12891Q9.66797 2.91016 11.709 2.91016ZM11.709 1.25Q9.98047 1.25 8.47656 0.605469Q6.97266-0.0390625 5.83496-1.17676Q4.69727-2.31445 4.05762-3.81836Q3.41797-5.32227 3.41797-7.05078Q3.41797-8.7793 4.05762-10.2832Q4.69727-11.7871 5.83008-12.9297Q6.96289-14.0723 8.4668-14.7119Q9.9707-15.3516 11.6992-15.3516Q13.4277-15.3516 14.9316-14.7119Q16.4355-14.0723 17.5781-12.9297Q18.7207-11.7871 19.3652-10.2832Q20.0098-8.7793 20.0098-7.05078Q20.0098-5.32227 19.3701-3.81836Q18.7305-2.31445 17.5928-1.17676Q16.4551-0.0390625 14.9463 0.605469Q13.4375 1.25 11.709 1.25ZM7.39258-7.04102Q7.39258-6.68945 7.62695-6.46484Q7.86133-6.24023 8.23242-6.24023L10.8789-6.24023L10.8789-3.57422Q10.8789-3.21289 11.1035-2.9834Q11.3281-2.75391 11.6797-2.75391Q12.0508-2.75391 12.2852-2.9834Q12.5195-3.21289 12.5195-3.57422L12.5195-6.24023L15.1758-6.24023Q15.5371-6.24023 15.7715-6.46484Q16.0059-6.68945 16.0059-7.04102Q16.0059-7.41211 15.7715-7.6416Q15.5371-7.87109 15.1758-7.87109L12.5195-7.87109L12.5195-10.5176Q12.5195-10.8984 12.2852-11.1279Q12.0508-11.3574 11.6797-11.3574Q11.3281-11.3574 11.1035-11.1279Q10.8789-10.8984 10.8789-10.5176L10.8789-7.87109L8.23242-7.87109Q7.85156-7.87109 7.62207-7.6416Q7.39258-7.41211 7.39258-7.04102Z"
         id="path1129" />
    </g>
    <g
       transform="matrix(1 0 0 1 305.646 1933)"
       id="g1135">
      <path
         d="M14.9707 5.66406Q17.0605 5.66406 18.96 5.01465Q20.8594 4.36523 22.4512 3.19336Q24.043 2.02148 25.2197 0.429688Q26.3965-1.16211 27.0459-3.06641Q27.6953-4.9707 27.6953-7.05078Q27.6953-9.14062 27.0459-11.04Q26.3965-12.9395 25.2197-14.5312Q24.043-16.123 22.4512-17.2998Q20.8594-18.4766 18.9551-19.126Q17.0508-19.7754 14.9609-19.7754Q12.8711-19.7754 10.9717-19.126Q9.07227-18.4766 7.48535-17.2998Q5.89844-16.123 4.72168-14.5312Q3.54492-12.9395 2.90039-11.04Q2.25586-9.14062 2.25586-7.05078Q2.25586-4.9707 2.90527-3.06641Q3.55469-1.16211 4.72656 0.429688Q5.89844 2.02148 7.49023 3.19336Q9.08203 4.36523 10.9814 5.01465Q12.8809 5.66406 14.9707 5.66406ZM14.9707 3.84766Q13.1641 3.84766 11.5283 3.2959Q9.89258 2.74414 8.53516 1.74805Q7.17773 0.751953 6.17676-0.610352Q5.17578-1.97266 4.62891-3.6084Q4.08203-5.24414 4.08203-7.05078Q4.08203-8.86719 4.62891-10.5029Q5.17578-12.1387 6.17188-13.501Q7.16797-14.8633 8.52539-15.8594Q9.88281-16.8555 11.5186-17.4023Q13.1543-17.9492 14.9609-17.9492Q16.7773-17.9492 18.4131-17.4023Q20.0488-16.8555 21.4111-15.8594Q22.7734-14.8633 23.7695-13.501Q24.7656-12.1387 25.3174-10.5029Q25.8691-8.86719 25.8691-7.05078Q25.8789-5.24414 25.332-3.6084Q24.7852-1.97266 23.7842-0.610352Q22.7832 0.751953 21.4209 1.74805Q20.0586 2.74414 18.4229 3.2959Q16.7871 3.84766 14.9707 3.84766ZM9.45312-7.04102Q9.45312-6.66016 9.71191-6.41113Q9.9707-6.16211 10.3711-6.16211L14.0625-6.16211L14.0625-2.46094Q14.0625-2.06055 14.3115-1.80664Q14.5605-1.55273 14.9414-1.55273Q15.3516-1.55273 15.6055-1.80664Q15.8594-2.06055 15.8594-2.46094L15.8594-6.16211L19.5605-6.16211Q19.9609-6.16211 20.2148-6.41113Q20.4688-6.66016 20.4688-7.04102Q20.4688-7.45117 20.2148-7.70508Q19.9609-7.95898 19.5605-7.95898L15.8594-7.95898L15.8594-11.6504Q15.8594-12.0605 15.6055-12.3145Q15.3516-12.5684 14.9414-12.5684Q14.5605-12.5684 14.3115-12.3096Q14.0625-12.0508 14.0625-11.6504L14.0625-7.95898L10.3711-7.95898Q9.96094-7.95898 9.70703-7.70508Q9.45312-7.45117 9.45312-7.04102Z"
         id="path1133" />
    </g>
    <text
       style="stroke:none;fill:black;font-family:sans-serif;font-size:13;font-weight:bold;"
       transform="matrix(1 0 0 1 263 1953)"
       id="text1137">Design Variations</text>
    <text
       style="stroke:none;fill:black;font-family:sans-serif;font-size:13;"
       transform="matrix(1 0 0 1 263 1971)"
       id="text1139">Symbols are supported in up to nine weights and three scales.</text>
    <text
       style="stroke:none;fill:black;font-family:sans-serif;font-size:13;"
       transform="matrix(1 0 0 1 263 1989)"
       id="text1141">For optimal layout with text and other symbols, vertically align</text>
    <text
       style="stroke:none;fill:black;font-family:sans-serif;font-size:13;"
       transform="matrix(1 0 0 1 263 2007)"
       id="text1143">symbols with the adjacent text.</text>
    <line
       style="fill:none;stroke:#00AEEF;stroke-width:0.5;opacity:1.0;"
       x1="776"
       x2="776"
       y1="1919"
       y2="1933"
       id="line1145" />
    <g
       transform="matrix(1 0 0 1 776 1933)"
       id="g1149">
      <path
         d="M3.31055 0.15625Q3.70117 0.15625 3.91602-0.00976562Q4.13086-0.175781 4.26758-0.585938L5.52734-4.0332L11.2891-4.0332L12.5488-0.585938Q12.6855-0.175781 12.9004-0.00976562Q13.1152 0.15625 13.4961 0.15625Q13.8867 0.15625 14.1162-0.0585938Q14.3457-0.273438 14.3457-0.644531Q14.3457-0.869141 14.2383-1.17188L9.6582-13.3691Q9.48242-13.8184 9.17969-14.043Q8.87695-14.2676 8.4082-14.2676Q7.5-14.2676 7.17773-13.3789L2.59766-1.16211Q2.49023-0.859375 2.49023-0.634766Q2.49023-0.263672 2.70996-0.0537109Q2.92969 0.15625 3.31055 0.15625ZM6.00586-5.51758L8.37891-12.0898L8.42773-12.0898L10.8008-5.51758Z"
         id="path1147" />
    </g>
    <line
       style="fill:none;stroke:#00AEEF;stroke-width:0.5;opacity:1.0;"
       x1="793.197"
       x2="793.197"
       y1="1919"
       y2="1933"
       id="line1151" />
    <text
       style="stroke:none;fill:black;font-family:sans-serif;font-size:13;font-weight:bold;"
       transform="matrix(1 0 0 1 776 1953)"
       id="text1153">Margins</text>
    <text
       style="stroke:none;fill:black;font-family:sans-serif;font-size:13;"
       transform="matrix(1 0 0 1 776 1971)"
       id="text1155">Leading and trailing margins on the left and right side of each symbol</text>
    <text
       style="stroke:none;fill:black;font-family:sans-serif;font-size:13;"
       transform="matrix(1 0 0 1 776 1989)"
       id="text1157">can be adjusted by modifying the x-location of the margin guidelines.</text>
    <text
       style="stroke:none;fill:black;font-family:sans-serif;font-size:13;"
       transform="matrix(1 0 0 1 776 2007)"
       id="text1159">Modifications are automatically applied proportionally to all</text>
    <text
       style="stroke:none;fill:black;font-family:sans-serif;font-size:13;"
       transform="matrix(1 0 0 1 776 2025)"
       id="text1161">scales and weights.</text>
    <g
       transform="matrix(1 0 0 1 1289 1933)"
       id="g1165">
      <path
         d="M2.8418 1.86523L4.54102 3.57422Q5.18555 4.22852 5.90332 4.17969Q6.62109 4.13086 7.31445 3.35938L18.0078-8.42773L17.041-9.4043L6.42578 2.27539Q6.16211 2.57812 5.89355 2.61719Q5.625 2.65625 5.27344 2.30469L4.10156 1.14258Q3.75 0.791016 3.79395 0.522461Q3.83789 0.253906 4.14062-0.0195312L15.6152-10.8203L14.6387-11.7871L3.04688-0.898438Q2.30469-0.214844 2.25098 0.498047Q2.19727 1.21094 2.8418 1.86523ZM9.25781-16.3281Q8.94531-16.0254 8.90625-15.6348Q8.86719-15.2441 9.04297-14.9512Q9.21875-14.6777 9.55566-14.541Q9.89258-14.4043 10.3809-14.5215Q11.4746-14.7754 12.5977-14.7314Q13.7207-14.6875 14.7949-13.9844L14.209-12.5293Q13.9551-11.9043 14.0674-11.4404Q14.1797-10.9766 14.5801-10.5664L16.875-8.25195Q17.2363-7.88086 17.5781-7.82227Q17.9199-7.76367 18.3398-7.8418L19.4043-8.03711L20.0684-7.36328L20.0293-6.80664Q20-6.43555 20.1221-6.12305Q20.2441-5.81055 20.6055-5.44922L21.3672-4.70703Q21.7285-4.3457 22.1533-4.33105Q22.5781-4.31641 22.9297-4.66797L25.8398-7.58789Q26.1914-7.93945 26.1816-8.35449Q26.1719-8.76953 25.8105-9.13086L25.0391-9.89258Q24.6875-10.2539 24.3799-10.3857Q24.0723-10.5176 23.7109-10.4883L23.1348-10.4395L22.4902-11.0742L22.7344-12.1973Q22.832-12.6172 22.6953-12.9834Q22.5586-13.3496 22.1191-13.7891L19.9219-15.9766Q18.6719-17.2168 17.2607-17.8369Q15.8496-18.457 14.4189-18.4814Q12.9883-18.5059 11.665-17.959Q10.3418-17.4121 9.25781-16.3281ZM10.752-15.957Q11.6602-16.6211 12.7002-16.9043Q13.7402-17.1875 14.8047-17.085Q15.8691-16.9824 16.8701-16.5137Q17.8711-16.0449 18.7012-15.2051L21.1328-12.793Q21.3086-12.6172 21.3525-12.4512Q21.3965-12.2852 21.3379-12.0312L21.0156-10.5469L22.5195-9.0625L23.5059-9.12109Q23.6914-9.13086 23.7891-9.09668Q23.8867-9.0625 24.0332-8.91602L24.6094-8.33984L22.168-5.89844L21.5918-6.47461Q21.4453-6.62109 21.4062-6.71875Q21.3672-6.81641 21.377-7.01172L21.4453-7.98828L19.9512-9.47266L18.4277-9.21875Q18.1836-9.16992 18.042-9.2041Q17.9004-9.23828 17.7148-9.41406L15.7129-11.416Q15.5176-11.5918 15.4932-11.7529Q15.4688-11.9141 15.5859-12.1875L16.4648-14.2773Q15.293-15.3711 13.8281-15.791Q12.3633-16.2109 10.8398-15.7617Q10.7227-15.7324 10.6885-15.8057Q10.6543-15.8789 10.752-15.957Z"
         id="path1163" />
    </g>
    <text
       style="stroke:none;fill:black;font-family:sans-serif;font-size:13;font-weight:bold;"
       transform="matrix(1 0 0 1 1289 1953)"
       id="text1167">Exporting</text>
    <text
       style="stroke:none;fill:black;font-family:sans-serif;font-size:13;"
       transform="matrix(1 0 0 1 1289 1971)"
       id="text1169">Symbols should be outlined when exporting to ensure the</text>
    <text
       style="stroke:none;fill:black;font-family:sans-serif;font-size:13;"
       transform="matrix(1 0 0 1 1289 1989)"
       id="text1171">design is preserved when submitting to Xcode.</text>
    <text
       id="template-version"
       style="stroke:none;fill:black;font-family:sans-serif;font-size:13;text-anchor:end;"
       transform="matrix(1 0 0 1 3036 1933)">Template v.3.0</text>
    <text
       style="stroke:none;fill:black;font-family:sans-serif;font-size:13;text-anchor:end;"
       transform="matrix(1 0 0 1 3036 1951)"
       id="text1174">Requires Xcode 13 or greater</text>
    <text
       id="descriptive-name"
       style="stroke:none;fill:black;font-family:sans-serif;font-size:13;text-anchor:end;"
       transform="matrix(1 0 0 1 3036 1969)">Generated from waveform.circle</text>
    <text
       style="stroke:none;fill:black;font-family:sans-serif;font-size:13;text-anchor:end;"
       transform="matrix(1 0 0 1 3036 1987)"
       id="text1177">Typeset at 100 points</text>
    <text
       style="stroke:none;fill:black;font-family:sans-serif;font-size:13;"
       transform="matrix(1 0 0 1 263 726)"
       id="text1179">Small</text>
    <text
       style="stroke:none;fill:black;font-family:sans-serif;font-size:13;"
       transform="matrix(1 0 0 1 263 1156)"
       id="text1181">Medium</text>
    <text
       style="stroke:none;fill:black;font-family:sans-serif;font-size:13;"
       transform="matrix(1 0 0 1 263 1586)"
       id="text1183">Large</text>
  </g>
  <g
     id="Guides">
    <g
       id="H-reference"
       style="fill:#27AAE1;stroke:none;"
       transform="matrix(1 0 0 1 339 696)">
      <path
         d="M0.993347 0L3.6377 0L29.3282-67.1326L30.0301-67.1326L30.0301-70.459L28.1227-70.459ZM11.6882-24.4797L46.9818-24.4797L46.2311-26.7288L12.4382-26.7288ZM55.1193 0L57.7637 0L30.6381-70.459L29.4327-70.459L29.4327-67.1326Z"
         id="path1186" />
    </g>
    <line
       id="Baseline-S"
       style="fill:none;stroke:#27AAE1;opacity:1;stroke-width:0.5;"
       x1="263"
       x2="3036"
       y1="696"
       y2="696" />
    <line
       id="Capline-S"
       style="fill:none;stroke:#27AAE1;opacity:1;stroke-width:0.5;"
       x1="263"
       x2="3036"
       y1="625.541"
       y2="625.541" />
    <g
       id="g1193"
       style="fill:#27AAE1;stroke:none;"
       transform="matrix(1 0 0 1 339 1126)">
      <path
         d="M0.993347 0L3.6377 0L29.3282-67.1326L30.0301-67.1326L30.0301-70.459L28.1227-70.459ZM11.6882-24.4797L46.9818-24.4797L46.2311-26.7288L12.4382-26.7288ZM55.1193 0L57.7637 0L30.6381-70.459L29.4327-70.459L29.4327-67.1326Z"
         id="path1191" />
    </g>
    <line
       id="Baseline-M"
       style="fill:none;stroke:#27AAE1;opacity:1;stroke-width:0.5;"
       x1="263"
       x2="3036"
       y1="1126"
       y2="1126" />
    <line
       id="Capline-M"
       style="fill:none;stroke:#27AAE1;opacity:1;stroke-width:0.5;"
       x1="263"
       x2="3036"
       y1="1055.54"
       y2="1055.54" />
    <g
       id="g1199"
       style="fill:#27AAE1;stroke:none;"
       transform="matrix(1 0 0 1 339 1556)">
      <path
         d="M0.993347 0L3.6377 0L29.3282-67.1326L30.0301-67.1326L30.0301-70.459L28.1227-70.459ZM11.6882-24.4797L46.9818-24.4797L46.2311-26.7288L12.4382-26.7288ZM55.1193 0L57.7637 0L30.6381-70.459L29.4327-70.459L29.4327-67.1326Z"
         id="path1197" />
    </g>
    <line
       id="Baseline-L"
       style="fill:none;stroke:#27AAE1;opacity:1;stroke-width:0.5;"
       x1="263"
       x2="3036"
       y1="1556"
       y2="1556" />
    <line
       id="Capline-L"
       style="fill:none;stroke:#27AAE1;opacity:1;stroke-width:0.5;"
       x1="263"
       x2="3036"
       y1="1485.54"
       y2="1485.54" />
    <line
       id="left-margin-Regular-M"
       style="fill:none;stroke:#00AEEF;stroke-width:0.5;opacity:1.0;"
       x1="1391.3"
       x2="1391.3"
       y1="1030.79"
       y2="1150.12" />
    <line
       id="right-margin-Regular-M"
       style="fill:none;stroke:#00AEEF;stroke-width:0.5;opacity:1.0;"
       x1="1508.39"
       x2="1508.39"
       y1="1030.79"
       y2="1150.12" />
  </g>
  <g
     id="Symbols">
    <g
       id="Black-L"
       transform="rotate(90,728.35992,2169.8134)">
      <path
         d="m 79.3457,32.8613 q 11.2305,0 21.4113,-3.4668 10.181,-3.4668 18.701,-9.7168 8.521,-6.25 14.771,-14.77047 6.25,-8.52051 9.716,-18.70113 3.467,-10.1807 3.467,-21.4112 0,-11.2304 -3.467,-21.4111 -3.466,-10.1807 -9.741,-18.7012 -6.274,-8.5205 -14.77,-14.7949 -8.496,-6.2744 -18.702,-9.7168 -10.2047,-3.4419 -21.4351,-3.4419 -11.1817,0 -21.3867,3.4419 -10.2051,3.4424 -18.7012,9.7168 -8.4961,6.2744 -14.7705,14.7949 -6.2744,8.5205 -9.7168,18.7012 -3.4424,10.1807 -3.4424,21.4111 0,11.2305 3.4424,21.4112 3.4424,10.18062 9.7168,18.70113 6.2744,8.52047 14.7949,14.77047 8.5205,6.25 18.7012,9.7168 10.1806,3.4668 21.4111,3.4668 z m 0,-20.459 q -7.9102,0 -15.0635,-2.3925 Q 57.1289,7.61719 51.1963,3.24707 45.2637,-1.12305 40.8936,-7.08008 36.5234,-13.0371 34.1309,-20.166 q -2.3926,-7.1289 -2.3926,-15.0391 0,-7.9101 2.3926,-15.0635 2.3925,-7.1533 6.7627,-13.0859 4.3701,-5.9326 10.3027,-10.3027 5.9326,-4.3701 13.0615,-6.7627 7.1289,-2.3926 15.0391,-2.3926 7.9101,0 15.0635,2.3926 7.1536,2.3926 13.1106,6.7627 5.957,4.3701 10.327,10.3027 4.37,5.9326 6.763,13.0859 2.392,7.1534 2.392,15.0635 0,7.9102 -2.392,15.0391 -2.393,7.1289 -6.763,13.08592 -4.37,5.95703 -10.303,10.32715 -5.933,4.37012 -13.0858,6.76273 -7.1533,2.3925 -15.0635,2.3925 z M 48.7793,-24.5605 q 1.9043,0 3.2227,-1.294 1.3183,-1.2939 1.3183,-3.1494 v -12.4512 q 0,-1.8554 -1.3183,-3.1494 -1.3184,-1.2939 -3.2227,-1.2939 -1.8066,0 -3.1006,1.2939 -1.2939,1.294 -1.2939,3.1494 v 12.4512 q 0,1.8555 1.2939,3.1494 1.294,1.294 3.1006,1.294 z m 12.207,14.3066 q 1.9043,0 3.2227,-1.294 1.3183,-1.2939 1.3183,-3.1005 v -41.1621 q 0,-1.8067 -1.3183,-3.1006 -1.3184,-1.294 -3.2227,-1.294 -1.8554,0 -3.125,1.294 -1.2695,1.2939 -1.2695,3.1006 v 41.1621 q 0,1.8554 1.2939,3.125 1.294,1.2695 3.1006,1.2695 z M 73.1934,0.439453 q 1.8554,0 3.1738,-1.293945 1.3183,-1.293948 1.3183,-3.149418 V -66.4062 q 0,-1.9043 -1.3183,-3.1983 -1.3184,-1.2939 -3.1738,-1.2939 -1.8555,0 -3.125,1.3183 -1.2696,1.3184 -1.2696,3.1739 v 62.40229 q 0,1.85547 1.2696,3.149418 1.2695,1.293945 3.125,1.293945 z M 85.4004,-14.1602 q 1.8555,0 3.125,-1.2939 1.2695,-1.2939 1.2695,-3.1494 v -33.252 q 0,-1.9043 -1.2939,-3.1738 -1.294,-1.2695 -3.1006,-1.2695 -1.8555,0 -3.1494,1.2939 -1.294,1.294 -1.294,3.1494 v 33.252 q 0,1.8555 1.294,3.1494 1.2939,1.2939 3.1494,1.2939 z m 12.1582,7.76372 q 1.8555,0 3.1254,-1.26954 1.269,-1.26953 1.269,-3.12498 v -48.877 q 0,-1.8554 -1.269,-3.125 -1.2699,-1.2695 -3.1254,-1.2695 -1.9043,0 -3.1982,1.2695 -1.294,1.2696 -1.294,3.125 v 48.877 q 0,1.85545 1.3184,3.12498 1.3183,1.26954 3.1738,1.26954 z M 109.717,-21.8262 q 1.855,0 3.125,-1.3183 1.269,-1.3184 1.269,-3.1739 v -17.8222 q 0,-1.9043 -1.294,-3.1739 -1.294,-1.2695 -3.1,-1.2695 -1.905,0 -3.198,1.294 -1.294,1.2939 -1.294,3.1494 v 17.8222 q 0,1.9043 1.294,3.1983 1.293,1.2939 3.198,1.2939 z"
         id="path1206" />
    </g>
    <g
       id="Heavy-L"
       transform="rotate(90,579.48195,2021.9674)">
      <path
         d="m 78.2715,31.7871 q 11.084,0 21.0937,-3.418 10.0098,-3.4179 18.3838,-9.5703 8.374,-6.1523 14.551,-14.55075 6.177,-8.39844 9.595,-18.40825 3.417,-10.0097 3.417,-21.0449 0,-11.0351 -3.417,-21.0693 -3.418,-10.0342 -9.595,-18.4082 -6.177,-8.374 -14.551,-14.5752 -8.374,-6.2012 -18.4082,-9.5947 -10.0342,-3.3935 -21.1181,-3.3935 -10.9864,0 -21.0206,3.3935 -10.0341,3.3935 -18.4082,9.5947 -8.374,6.2012 -14.5507,14.5752 -6.1768,8.374 -9.5703,18.4082 -3.3936,10.0342 -3.3936,21.0693 0,11.0352 3.3936,21.0449 3.3935,10.00981 9.5703,18.40825 6.1767,8.39845 14.5752,14.55075 8.3984,6.1524 18.4082,9.5703 10.0097,3.418 21.0449,3.418 z m 0,-17.7734 q -8.1543,0 -15.5518,-2.4658 Q 55.3223,9.08203 49.1943,4.56543 43.0664,0.0488281 38.5498,-6.12793 34.0332,-12.3047 31.543,-19.6777 q -2.4903,-7.3731 -2.4903,-15.5274 0,-8.2031 2.4903,-15.6006 2.4902,-7.3974 6.9824,-13.5254 4.4922,-6.1279 10.6445,-10.6445 6.1524,-4.5166 13.5254,-7.0068 7.3731,-2.4903 15.5274,-2.4903 8.2031,0 15.6005,2.4903 7.3978,2.4902 13.5498,7.0068 6.152,4.5166 10.669,10.6445 4.517,6.128 7.007,13.5254 2.49,7.3975 2.49,15.6006 0,8.1543 -2.49,15.5274 -2.49,7.373 -7.007,13.54977 -4.517,6.1767581 -10.645,10.69336 -6.127,4.5166 -13.5249,6.98247 -7.3975,2.4658 -15.6006,2.4658 z m -30.8594,-38.916 q 1.7578,0 3.0029,-1.2207 1.2452,-1.2208 1.2452,-2.9786 v -12.3046 q 0,-1.7579 -1.2452,-2.9542 -1.2451,-1.1962 -3.0029,-1.1962 -1.709,0 -2.9297,1.1962 -1.2207,1.1963 -1.2207,2.9542 v 12.3046 q 0,1.7578 1.2207,2.9786 1.2207,1.2207 2.9297,1.2207 z m 12.3535,14.4531 q 1.7578,0 3.003,-1.2207 1.2451,-1.2207 1.2451,-2.9297 v -41.3086 q 0,-1.709 -1.2451,-2.9053 -1.2452,-1.1963 -3.003,-1.1963 -1.7578,0 -2.9541,1.1963 -1.1963,1.1963 -1.1963,2.9053 v 41.3086 q 0,1.7578 1.2207,2.9541 1.2207,1.1963 2.9297,1.1963 z M 72.0703,1.70898 q 1.7578,0 3.0029,-1.196285 1.2452,-1.196289 1.2452,-2.954105 V -67.9688 q 0,-1.8066 -1.2452,-3.0273 -1.2451,-1.2207 -3.0029,-1.2207 -1.7578,0 -2.9541,1.2451 -1.1963,1.2451 -1.1963,3.0029 v 65.52739 q 0,1.757816 1.1963,2.954105 1.1963,1.196285 2.9541,1.196285 z M 84.4238,-14.502 q 1.7578,0 2.9541,-1.2207 1.1963,-1.2207 1.1963,-2.9785 v -33.1054 q 0,-1.7579 -1.2207,-2.9541 -1.2207,-1.1963 -2.9297,-1.1963 -1.7578,0 -2.9785,1.1963 -1.2207,1.1962 -1.2207,2.9541 v 33.1054 q 0,1.7578 1.2207,2.9785 1.2207,1.2207 2.9785,1.2207 z m 12.3047,8.74028 q 1.7578,0 2.9541,-1.17187 1.1964,-1.17188 1.1964,-2.92969 V -60.5957 q 0,-1.7578 -1.1964,-2.9541 -1.1963,-1.1963 -2.9541,-1.1963 -1.8066,0 -3.0029,1.1963 -1.1963,1.1963 -1.1963,2.9541 v 50.73242 q 0,1.75781 1.2207,2.92969 1.2207,1.17187 2.9785,1.17187 z M 109.033,-21.9727 q 1.758,0 2.954,-1.2207 1.197,-1.2207 1.197,-2.9785 v -18.164 q 0,-1.7579 -1.221,-2.9541 -1.221,-1.1963 -2.93,-1.1963 -1.806,0 -3.003,1.2207 -1.196,1.2207 -1.196,2.9297 v 18.164 q 0,1.7578 1.196,2.9785 1.197,1.2207 3.003,1.2207 z"
         id="path1209" />
    </g>
    <g
       id="Bold-L"
       transform="rotate(90,430.5442,1874.1936)">
      <path
         d="m 77.0996,30.6152 q 10.8399,0 20.6787,-3.3691 9.8387,-3.3691 18.0907,-9.4238 8.252,-6.0547 14.307,-14.30668 6.054,-8.25195 9.424,-18.09082 3.369,-9.8389 3.369,-20.6787 0,-10.8399 -3.369,-20.6787 -3.37,-9.8389 -9.449,-18.0664 -6.079,-8.2276 -14.306,-14.3067 -8.228,-6.0791 -18.0911,-9.4238 -9.8633,-3.3445 -20.7031,-3.3445 -10.791,0 -20.6543,3.3445 -9.8633,3.3447 -18.0664,9.4238 -8.2031,6.0791 -14.2822,14.3067 -6.0791,8.2275 -9.4239,18.0664 -3.3447,9.8388 -3.3447,20.6787 0,10.8398 3.3447,20.6787 3.3448,9.83887 9.4239,18.09082 6.0791,8.25198 14.3066,14.30668 8.2275,6.0547 18.0664,9.4238 9.8389,3.3691 20.6787,3.3691 z m 0,-14.7949 q -8.4473,0 -16.1133,-2.5635 -7.666,-2.5634 -14.0381,-7.25094 -6.372,-4.6875 -11.0595,-11.08398 -4.6875,-6.39648 -7.251,-14.03808 -2.5635,-7.6416 -2.5635,-16.1377 0,-8.4961 2.5635,-16.1621 2.5635,-7.666 7.251,-14.0381 4.6875,-6.3721 11.0351,-11.0352 6.3477,-4.663 14.0137,-7.2265 7.666,-2.5635 16.1133,-2.5635 8.4961,0 16.1621,2.5635 7.6661,2.5635 14.0621,7.2265 6.397,4.6631 11.06,11.0352 4.663,6.3721 7.251,14.0381 2.588,7.666 2.588,16.1621 0,8.4961 -2.564,16.1377 -2.563,7.6416 -7.251,14.03808 -4.687,6.39648 -11.059,11.08398 -6.372,4.68754 -14.0383,7.25094 -7.666,2.5635 -16.1621,2.5635 z m -31.25,-41.1621 q 1.6602,0 2.8076,-1.123 1.1475,-1.1231 1.1475,-2.7832 v -12.1582 q 0,-1.6114 -1.1475,-2.7344 -1.1474,-1.1231 -2.8076,-1.1231 -1.6113,0 -2.7344,1.1231 -1.123,1.123 -1.123,2.7344 v 12.1582 q 0,1.6601 1.123,2.7832 1.1231,1.123 2.7344,1.123 z m 12.5,14.5996 q 1.6602,0 2.8076,-1.123 1.1475,-1.1231 1.1475,-2.7344 v -41.4551 q 0,-1.6113 -1.1475,-2.7344 -1.1474,-1.123 -2.8076,-1.123 -1.6113,0 -2.7344,1.123 -1.123,1.1231 -1.123,2.7344 v 41.4551 q 0,1.6601 1.123,2.7588 1.1231,1.0986 2.7344,1.0986 z m 12.5,13.8672 q 1.6113,0 2.7588,-1.12305 1.1475,-1.123044 1.1475,-2.7832 V -69.8242 q 0,-1.6602 -1.1475,-2.7832 -1.1475,-1.1231 -2.7588,-1.1231 -1.6601,0 -2.7588,1.1231 -1.0986,1.123 -1.0986,2.7832 v 69.04295 q 0,1.708984 1.0986,2.80762 1.0987,1.09863 2.7588,1.09863 z m 12.4512,-18.0664 q 1.6601,0 2.7832,-1.1231 1.123,-1.123 1.123,-2.7832 v -32.9589 q 0,-1.6602 -1.123,-2.7588 -1.1231,-1.0987 -2.7832,-1.0987 -1.6113,0 -2.7344,1.1231 -1.123,1.123 -1.123,2.7344 v 32.9589 q 0,1.6602 1.123,2.7832 1.1231,1.1231 2.7344,1.1231 z m 12.5,9.86328 q 1.6113,0 2.7344,-1.09864 1.123,-1.09863 1.123,-2.70996 V -61.7188 q 0,-1.6113 -1.123,-2.7343 -1.1231,-1.1231 -2.7344,-1.1231 -1.6602,0 -2.7832,1.1231 -1.1231,1.123 -1.1231,2.7343 v 52.83208 q 0,1.61133 1.1231,2.70996 1.123,1.09864 2.7832,1.09864 z M 108.252,-22.168 q 1.66,0 2.759,-1.123 1.098,-1.1231 1.098,-2.7832 v -18.5059 q 0,-1.6601 -1.098,-2.7588 -1.099,-1.0986 -2.759,-1.0986 -1.66,0 -2.783,1.123 -1.123,1.1231 -1.123,2.7344 v 18.5059 q 0,1.6601 1.123,2.7832 1.123,1.123 2.783,1.123 z"
         id="path1212" />
    </g>
    <g
       id="Semibold-L"
       transform="rotate(90,281.76505,1726.232)">
      <path
         d="m 76.2695,29.7852 q 10.6934,0 20.4102,-3.3204 9.7163,-3.3203 17.8713,-9.3017 8.154,-5.9815 14.136,-14.13576 5.981,-8.15429 9.301,-17.87114 3.321,-9.7167 3.321,-20.4101 0,-10.6934 -3.321,-20.4102 -3.32,-9.7168 -9.326,-17.8466 -6.006,-8.1299 -14.136,-14.1358 -8.13,-6.0058 -17.8707,-9.3262 -9.7412,-3.3203 -20.4346,-3.3203 -10.6934,0 -20.4102,3.3203 -9.7167,3.3204 -17.8222,9.3262 -8.1055,6.0059 -14.1113,14.1358 -6.0059,8.1298 -9.3018,17.8466 -3.2959,9.7168 -3.2959,20.4102 0,10.6934 3.3203,20.4101 3.3203,9.71685 9.3018,17.87114 5.9814,8.15426 14.1113,14.13576 8.1299,5.9814 17.8467,9.3017 9.7168,3.3204 20.4101,3.3204 z m 0,-12.7442 q -8.6425,0 -16.5039,-2.6367 Q 51.9043,11.7676 45.3857,6.98242 38.8672,2.19727 34.0576,-4.3457 q -4.8096,-6.543 -7.4219,-14.3799 -2.6123,-7.8369 -2.6123,-16.5283 0,-8.6914 2.6123,-16.5527 2.6123,-7.8614 7.3975,-14.3799 4.7852,-6.5186 11.3037,-11.3037 6.5186,-4.7852 14.3799,-7.4219 7.8613,-2.6367 16.5039,-2.6367 8.7402,0 16.5772,2.6367 7.8371,2.6367 14.3801,7.4219 6.543,4.7851 11.328,11.3037 4.785,6.5185 7.422,14.3799 2.636,7.8613 2.636,16.5527 0.049,8.6914 -2.563,16.5283 -2.612,7.8369 -7.422,14.3799 Q 113.77,2.19727 107.227,6.98242 100.684,11.7676 92.8467,14.4043 85.0098,17.041 76.2695,17.041 Z M 44.6777,-25.5859 q 1.6114,0 2.6856,-1.0743 1.0742,-1.0742 1.0742,-2.6367 v -12.0605 q 0,-1.5137 -1.0742,-2.5879 -1.0742,-1.0742 -2.6856,-1.0742 -1.5136,0 -2.5634,1.0742 -1.0498,1.0742 -1.0498,2.5879 v 12.0605 q 0,1.5625 1.0498,2.6367 1.0498,1.0743 2.5634,1.0743 z m 12.6465,14.6972 q 1.5625,0 2.6367,-1.0498 1.0743,-1.0498 1.0743,-2.6123 v -41.5527 q 0,-1.5137 -1.0743,-2.5879 -1.0742,-1.0742 -2.6367,-1.0742 -1.5625,0 -2.6123,1.0742 -1.0498,1.0742 -1.0498,2.5879 v 41.5527 q 0,1.5625 1.0742,2.6123 1.0742,1.0498 2.5879,1.0498 z M 69.9219,4.10156 q 1.5625,0 2.6123,-1.0498 Q 73.584,2.00195 73.584,0.439453 V -70.9961 q 0,-1.6113 -1.0498,-2.6855 -1.0498,-1.0743 -2.6123,-1.0743 -1.5625,0 -2.6123,1.0743 -1.0498,1.0742 -1.0498,2.6855 V 0.439453 q 0,1.611327 1.0254,2.636717 1.0253,1.02539 2.6367,1.02539 z M 82.4707,-15.1855 q 1.6113,0 2.6611,-1.0743 1.0498,-1.0742 1.0498,-2.6367 v -32.8613 q 0,-1.5625 -1.0742,-2.6123 -1.0742,-1.0498 -2.6367,-1.0498 -1.5137,0 -2.5635,1.0742 -1.0498,1.0742 -1.0498,2.5879 v 32.8613 q 0,1.5625 1.0498,2.6367 1.0498,1.0743 2.5635,1.0743 z m 12.5977,10.64448 q 1.5625,0 2.6123,-1.0498 1.0498,-1.0498 1.0498,-2.56348 v -54.2969 q 0,-1.5136 -1.0498,-2.5634 -1.0498,-1.0499 -2.6123,-1.0499 -1.5625,0 -2.6368,1.0499 -1.0742,1.0498 -1.0742,2.5634 v 54.2969 q 0,1.51368 1.0742,2.56348 1.0743,1.0498 2.6368,1.0498 z M 107.666,-22.2656 q 1.563,0 2.612,-1.0498 1.05,-1.0498 1.05,-2.6123 v -18.75 q 0,-1.5625 -1.05,-2.6123 -1.049,-1.0498 -2.612,-1.0498 -1.562,0 -2.637,1.0742 -1.074,1.0742 -1.074,2.5879 v 18.75 q 0,1.5136 1.074,2.5879 1.075,1.0742 2.637,1.0742 z"
         id="path1215" />
    </g>
    <g
       id="Medium-L"
       transform="rotate(90,133.09597,1578.1746)">
      <path
         d="m 75.6836,29.1504 q 10.5469,0 20.166,-3.2959 9.6194,-3.2959 17.7004,-9.2285 8.081,-5.9326 14.013,-13.98928 5.933,-8.05664 9.229,-17.70022 3.296,-9.6435 3.296,-20.1904 0,-10.5957 -3.296,-20.2149 -3.296,-9.6191 -9.253,-17.6757 -5.957,-8.0567 -14.014,-14.0137 -8.056,-5.957 -17.6998,-9.2285 -9.6436,-3.2715 -20.1904,-3.2715 -10.5957,0 -20.2149,3.2715 -9.6191,3.2715 -17.6758,9.2285 -8.0566,5.957 -13.9892,14.0137 -5.9326,8.0566 -9.2041,17.6757 -3.2715,9.6192 -3.2715,20.2149 0,10.5469 3.2715,20.1904 3.2715,9.64358 9.2041,17.70022 5.9326,8.05668 14.0137,13.98928 8.081,5.9326 17.7002,9.2285 9.6191,3.2959 20.2148,3.2959 z m 0,-11.1328 q -8.8379,0 -16.8457,-2.6856 Q 50.8301,12.6465 44.2139,7.76367 37.5977,2.88086 32.6904,-3.78418 27.7832,-10.4492 25.1221,-18.4326 q -2.6612,-7.9834 -2.6612,-16.8213 0,-8.8867 2.6612,-16.8701 2.6611,-7.9834 7.5439,-14.624 4.8828,-6.6407 11.499,-11.5235 6.6162,-4.8828 14.6241,-7.5439 8.0078,-2.6612 16.8457,-2.6612 8.8379,0 16.8457,2.6612 8.0075,2.6611 14.6485,7.5439 6.641,4.8828 11.523,11.5235 4.883,6.6406 7.569,14.624 2.685,7.9834 2.685,16.8701 0.049,8.8379 -2.612,16.8213 -2.661,7.9834 -7.568,14.64842 -4.908,6.66504 -11.548,11.54785 -6.641,4.88283 -14.6487,7.56833 -8.0078,2.6856 -16.8457,2.6856 z M 43.8965,-25.8301 q 1.5625,0 2.5635,-1.001 1.0009,-1.0009 1.0009,-2.5146 v -12.0117 q 0,-1.4649 -1.0009,-2.4658 -1.001,-1.001 -2.5635,-1.001 -1.416,0 -2.4414,1.001 -1.0254,1.0009 -1.0254,2.4658 v 12.0117 q 0,1.5137 1.0254,2.5146 1.0254,1.001 2.4414,1.001 z m 12.7441,14.8438 q 1.5137,0 2.5147,-1.001 1.0009,-1.001 1.0009,-2.5635 v -41.6015 q 0,-1.4649 -1.0009,-2.4903 -1.001,-1.0254 -2.5147,-1.0254 -1.5136,0 -2.5146,1.0254 -1.001,1.0254 -1.001,2.4903 v 41.6015 q 0,1.5625 1.001,2.5635 1.001,1.001 2.5146,1.001 z M 69.2871,4.88281 q 1.4649,0 2.4902,-1.02539 1.0254,-1.02539 1.0254,-2.49023 V -71.9238 q 0,-1.5625 -1.0254,-2.5635 -1.0253,-1.001 -2.4902,-1.001 -1.5137,0 -2.5146,1.001 -1.001,1.001 -1.001,2.5635 V 1.36719 q 0,1.51367 0.9765,2.51465 0.9766,1.00097 2.5391,1.00097 z M 81.9336,-15.4297 q 1.5137,0 2.5391,-1.001 1.0253,-1.0009 1.0253,-2.5146 v -32.8125 q 0,-1.4649 -1.0253,-2.4658 -1.0254,-1.001 -2.5391,-1.001 -1.4648,0 -2.4658,1.001 -1.001,1.0009 -1.001,2.4658 v 32.8125 q 0,1.5137 1.001,2.5146 1.001,1.001 2.4658,1.001 z m 12.6953,11.27931 q 1.4649,0 2.4658,-1.02539 1.001,-1.02539 1.001,-2.44141 V -62.9883 q 0,-1.4648 -1.001,-2.4658 -1.0009,-1.001 -2.4658,-1.001 -1.5137,0 -2.5391,1.001 -1.0253,1.001 -1.0253,2.4658 v 55.37111 q 0,1.41602 1.0253,2.44141 1.0254,1.02539 2.5391,1.02539 z M 107.275,-22.3633 q 1.563,0 2.539,-1.001 0.977,-1.0009 0.977,-2.4658 v -18.9453 q 0,-1.5137 -1.001,-2.5146 -1.001,-1.001 -2.515,-1.001 -1.513,0 -2.514,1.0254 -1.001,1.0254 -1.001,2.4902 v 18.9453 q 0,1.4649 1.001,2.4658 1.001,1.001 2.514,1.001 z"
         id="path1218" />
    </g>
    <g
       id="Regular-L"
       transform="rotate(90,-15.653614,1430.2081)">
      <path
         d="m 74.8535,28.3203 q 10.4492,0 19.9463,-3.2471 9.4972,-3.247 17.4562,-9.1064 7.959,-5.8594 13.843,-13.81836 5.883,-7.95899 9.13,-17.48044 3.248,-9.5215 3.248,-19.9219 0,-10.4492 -3.248,-19.9463 -3.247,-9.4971 -9.13,-17.456 -5.884,-7.959 -13.843,-13.8428 -7.959,-5.8838 -17.4806,-9.1309 -9.5215,-3.2471 -19.9707,-3.2471 -10.4492,0 -19.9463,3.2471 -9.4971,3.2471 -17.4316,9.1309 -7.9346,5.8838 -13.8184,13.8428 -5.8838,7.9589 -9.1064,17.456 -3.2227,9.4971 -3.2227,19.9463 0,10.4004 3.2471,19.9219 3.247,9.52145 9.1064,17.48044 5.8594,7.95896 13.8184,13.81836 7.959,5.8594 17.456,9.1064 9.4971,3.2471 19.9463,3.2471 z m 0,-9.082 q -9.0332,0 -17.2119,-2.7588 Q 49.4629,13.7207 42.6758,8.74023 35.8887,3.75977 30.8838,-3.05176 25.8789,-9.86328 23.1445,-18.042 q -2.7343,-8.1787 -2.7343,-17.2119 0,-9.082 2.7343,-17.2607 2.7344,-8.1788 7.7149,-14.9903 4.9804,-6.8115 11.7676,-11.792 6.7871,-4.9804 14.9658,-7.7148 8.1787,-2.7344 17.2119,-2.7344 9.082,0 17.2607,2.7344 8.1786,2.7344 14.9906,7.7148 6.811,4.9805 11.792,11.792 4.98,6.8115 7.739,14.9903 2.759,8.1787 2.759,17.2607 0.049,9.0332 -2.686,17.2119 -2.734,8.17872 -7.739,14.99024 -5.005,6.81153 -11.817,11.79199 -6.811,4.98047 -14.9897,7.73927 -8.1788,2.7588 -17.2608,2.7588 z M 42.8223,-26.0742 q 1.4648,0 2.417,-0.9522 0.9521,-0.9521 0.9521,-2.3681 v -11.9141 q 0,-1.3672 -0.9521,-2.3193 -0.9522,-0.9522 -2.417,-0.9522 -1.3672,0 -2.3194,0.9522 -0.9521,0.9521 -0.9521,2.3193 v 11.9141 q 0,1.416 0.9521,2.3681 0.9522,0.9522 2.3194,0.9522 z m 12.8418,14.9414 q 1.416,0 2.3681,-0.9522 0.9522,-0.9521 0.9522,-2.417 v -41.6992 q 0,-1.416 -0.9522,-2.3681 -0.9521,-0.9522 -2.3681,-0.9522 -1.4161,0 -2.3682,0.9522 -0.9521,0.9521 -0.9521,2.3681 v 41.6992 q 0,1.4649 0.9521,2.417 0.9521,0.9522 2.3682,0.9522 z M 68.4082,5.85938 q 1.416,0 2.3682,-0.95215 0.9521,-0.95215 0.9521,-2.36817 V -73.1445 q 0,-1.4649 -0.9521,-2.417 -0.9522,-0.9522 -2.3682,-0.9522 -1.416,0 -2.3682,0.9522 -0.9521,0.9521 -0.9521,2.417 V 2.53906 q 0,1.46485 0.9277,2.39258 0.9278,0.92774 2.3926,0.92774 z M 81.1523,-15.6738 q 1.4649,0 2.417,-0.9522 0.9522,-0.9521 0.9522,-2.3681 V -51.709 q 0,-1.3672 -0.9522,-2.3193 -0.9521,-0.9522 -2.417,-0.9522 -1.3671,0 -2.3193,0.9522 -0.9521,0.9521 -0.9521,2.3193 v 32.7149 q 0,1.416 0.9521,2.3681 0.9522,0.9522 2.3193,0.9522 z m 12.793,12.01169 q 1.416,0 2.3682,-0.95215 0.9521,-0.95215 0.9521,-2.31933 V -63.7207 q 0,-1.3672 -0.9521,-2.3193 -0.9522,-0.9522 -2.3682,-0.9522 -1.416,0 -2.3682,0.9522 -0.9521,0.9521 -0.9521,2.3193 v 56.78711 q 0,1.36718 0.9521,2.31933 0.9522,0.95215 2.3682,0.95215 z M 106.738,-22.4609 q 1.465,0 2.393,-0.9278 0.928,-0.9277 0.928,-2.3437 v -19.1895 q 0,-1.416 -0.928,-2.3437 -0.928,-0.9278 -2.393,-0.9278 -1.416,0 -2.368,0.9522 -0.952,0.9521 -0.952,2.3193 v 19.1895 q 0,1.3672 0.952,2.3193 0.952,0.9522 2.368,0.9522 z"
         id="path1221" />
    </g>
    <g
       id="Light-L"
       transform="rotate(90,-164.4744,1282.3158)">
      <path
         d="m 73.9258,27.3926 q 10.3027,0 19.6777,-3.1983 9.3755,-3.1982 17.2115,-8.9599 7.837,-5.76174 13.623,-13.59866 5.787,-7.83691 8.985,-17.21194 3.198,-9.375 3.198,-19.6777 0,-10.3027 -3.198,-19.6777 -3.198,-9.375 -8.985,-17.212 -5.786,-7.8369 -13.623,-13.623 -7.836,-5.7861 -17.2115,-8.9844 -9.375,-3.1982 -19.7265,-3.1982 -10.3028,0 -19.6534,3.1982 -9.3506,3.1983 -17.1875,8.9844 -7.8369,5.7861 -13.623,13.623 -5.7861,7.837 -8.96,17.212 -3.1738,9.375 -3.1738,19.6777 0,10.3027 3.1982,19.6777 3.1983,9.37503 8.96,17.21194 5.7617,7.83692 13.5986,13.59866 7.8369,5.7617 17.2119,8.9599 9.375,3.1983 19.6778,3.1983 z m 0,-6.8848 q -9.2285,0 -17.6026,-2.832 -8.374,-2.832 -15.332,-7.93459 -6.958,-5.10254 -12.0605,-12.06055 -5.1026,-6.958 -7.9102,-15.33206 -2.8076,-8.374 -2.8076,-17.6025 0,-9.2773 2.8076,-17.627 2.8076,-8.3496 7.9102,-15.332 5.1025,-6.9824 12.0605,-12.085 6.958,-5.1025 15.3076,-7.9101 8.3496,-2.8076 17.5782,-2.8076 9.2773,0 17.6513,2.8076 8.374,2.8076 15.3317,7.9101 6.958,5.1026 12.085,12.085 5.127,6.9824 7.935,15.332 2.808,8.3497 2.808,17.627 0.048,9.2285 -2.759,17.6025 -2.808,8.37406 -7.935,15.33206 -5.127,6.95801 -12.085,12.06055 -6.9578,5.10259 -15.3319,7.93459 -8.374,2.832 -17.6513,2.832 z M 41.9434,-26.1719 q 1.2207,0 1.9775,-0.7568 0.7568,-0.7568 0.7568,-1.9287 v -13.0371 q 0,-1.1231 -0.7568,-1.8799 -0.7568,-0.7568 -1.9775,-0.7568 -1.1231,0 -1.8799,0.7568 -0.7569,0.7568 -0.7569,1.8799 v 13.0371 q 0,1.1719 0.7569,1.9287 0.7568,0.7568 1.8799,0.7568 z m 12.8418,14.5996 q 1.123,0 1.9043,-0.7812 0.7812,-0.7813 0.7812,-1.9531 v -42.1387 q 0,-1.1719 -0.7812,-1.9287 -0.7813,-0.7569 -1.9043,-0.7569 -1.1719,0 -1.9288,0.7569 -0.7568,0.7568 -0.7568,1.9287 v 42.1387 q 0,1.1718 0.7568,1.9531 0.7569,0.7812 1.9288,0.7812 z M 67.5293,5.71289 q 1.123,0 1.8799,-0.75684 Q 70.166,4.19922 70.166,3.02734 V -73.7305 q 0,-1.2207 -0.7568,-1.9775 -0.7569,-0.7568 -1.8799,-0.7568 -1.1719,0 -1.9287,0.7568 -0.7568,0.7568 -0.7568,1.9775 V 3.02734 q 0,1.22071 0.7324,1.95313 0.7324,0.73242 1.9531,0.73242 z M 80.2734,-15.4297 q 1.1719,0 1.9287,-0.7568 0.7569,-0.7569 0.7569,-1.9287 v -34.5215 q 0,-1.1231 -0.7569,-1.8799 -0.7568,-0.7568 -1.9287,-0.7568 -1.123,0 -1.8798,0.7568 -0.7569,0.7568 -0.7569,1.8799 v 34.5215 q 0,1.1718 0.7569,1.9287 0.7568,0.7568 1.8798,0.7568 z m 12.7442,10.69337 q 1.1719,0 1.9287,-0.75683 0.7568,-0.75684 0.7568,-1.87989 V -63.3301 q 0,-1.123 -0.7568,-1.9043 -0.7568,-0.7812 -1.9287,-0.7812 -1.1231,0 -1.9043,0.7812 -0.7813,0.7813 -0.7813,1.9043 v 55.95705 q 0,1.12305 0.7813,1.87989 0.7812,0.75683 1.9043,0.75683 z M 105.811,-21.9238 q 1.171,0 1.928,-0.7569 0.757,-0.7568 0.757,-1.9287 v -21.5332 q 0,-1.1719 -0.757,-1.9043 -0.757,-0.7324 -1.928,-0.7324 -1.172,0 -1.929,0.7568 -0.757,0.7569 -0.757,1.8799 v 21.5332 q 0,1.1719 0.757,1.9287 0.757,0.7569 1.929,0.7569 z"
         id="path1224" />
    </g>
    <g
       id="Thin-L"
       transform="rotate(90,-313.43205,1134.5698)">
      <path
         d="m 72.7051,26.1719 q 10.1562,0 19.3359,-3.125 9.18,-3.125 16.87,-8.7647 7.691,-5.63962 13.355,-13.330052 5.664,-7.690428 8.789,-16.894548 3.125,-9.2041 3.125,-19.3115 0,-10.1563 -3.125,-19.3359 -3.125,-9.1797 -8.765,-16.8702 -5.64,-7.6904 -13.354,-13.3545 -7.715,-5.664 -16.9194,-8.789 -9.2041,-3.125 -19.3115,-3.125 -10.1563,0 -19.336,3.125 -9.1796,3.125 -16.8701,8.789 -7.6904,5.6641 -13.3301,13.3545 -5.6396,7.6905 -8.7646,16.8702 -3.125,9.1796 -3.125,19.3359 0,10.1074 3.125,19.3115 3.125,9.20412 8.7646,16.894548 5.6397,7.690432 13.3545,13.330052 7.7149,5.6397 16.8946,8.7647 9.1797,3.125 19.2871,3.125 z m 0,-4.0039 q -9.4727,0 -18.0908,-2.9053 Q 45.9961,16.3574 38.8184,11.084 31.6406,5.81055 26.3428,-1.36719 21.0449,-8.54492 18.1641,-17.1631 q -2.8809,-8.6181 -2.8809,-18.0908 0,-9.5215 2.8809,-18.1397 2.8808,-8.6181 8.1787,-15.7959 5.2978,-7.1777 12.4756,-12.4511 7.1777,-5.2735 15.7714,-8.1787 8.5938,-2.9053 18.1153,-2.9053 9.5215,0 18.1152,2.9053 8.5938,2.9052 15.7957,8.1787 7.202,5.2734 12.476,12.4511 5.273,7.1778 8.179,15.7959 2.905,8.6182 2.905,18.1397 0,9.4727 -2.905,18.0908 -2.906,8.61818 -8.179,15.79591 -5.274,7.17774 -12.451,12.45119 -7.1781,5.2734 -15.7963,8.1787 -8.6181,2.9053 -18.1396,2.9053 z M 40.7715,-26.3184 q 0.8789,0 1.3672,-0.5127 0.4883,-0.5127 0.4883,-1.3427 V -42.627 q 0,-0.83 -0.4883,-1.3427 -0.4883,-0.5127 -1.3672,-0.5127 -0.7813,0 -1.294,0.5127 -0.5127,0.5127 -0.5127,1.3427 v 14.4532 q 0,0.83 0.5127,1.3427 0.5127,0.5127 1.294,0.5127 z m 12.793,14.1602 q 0.83,0 1.3427,-0.5127 0.5127,-0.5127 0.5127,-1.3428 v -42.7246 q 0,-0.8301 -0.5127,-1.3183 -0.5127,-0.4883 -1.3427,-0.4883 -0.7813,0 -1.294,0.4883 -0.5127,0.4882 -0.5127,1.3183 v 42.7246 q 0,0.8301 0.5127,1.3428 0.5127,0.5127 1.294,0.5127 z M 66.3086,5.56641 q 0.8301,0 1.3184,-0.5127 0.4882,-0.51269 0.4882,-1.34277 V -74.5605 q 0,-0.8301 -0.4882,-1.3428 -0.4883,-0.5127 -1.3184,-0.5127 -0.8301,0 -1.3428,0.5127 -0.5127,0.5127 -0.5127,1.3428 V 3.71094 q 0,0.83008 0.5127,1.34277 0.5127,0.5127 1.3428,0.5127 z m 12.793,-20.65431 q 0.7812,0 1.2939,-0.5127 0.5127,-0.5127 0.5127,-1.2939 v -36.9629 q 0,-0.7813 -0.5127,-1.294 -0.5127,-0.5127 -1.2939,-0.5127 -0.8301,0 -1.3428,0.5127 -0.5127,0.5127 -0.5127,1.294 v 36.9629 q 0,0.7812 0.5127,1.2939 0.5127,0.5127 1.3428,0.5127 z m 12.6953,8.98438 q 0.7812,0 1.2939,-0.51269 0.5127,-0.5127 0.5127,-1.34277 V -62.8418 q 0,-0.7812 -0.5127,-1.2939 -0.5127,-0.5127 -1.2939,-0.5127 -0.7813,0 -1.294,0.5127 -0.5127,0.5127 -0.5127,1.2939 v 54.88282 q 0,0.83007 0.5127,1.34277 0.5127,0.51269 1.294,0.51269 z M 104.59,-21.2402 q 0.83,0 1.318,-0.4883 0.488,-0.4883 0.488,-1.3184 v -24.6582 q 0,-0.8301 -0.488,-1.3428 -0.488,-0.5126 -1.318,-0.5126 -0.83,0 -1.319,0.5126 -0.488,0.5127 -0.488,1.3428 v 24.6582 q 0,0.7813 0.488,1.294 0.489,0.5127 1.319,0.5127 z"
         id="path1227" />
    </g>
    <g
       id="Ultralight-L"
       transform="rotate(90,-462.09882,986.52459)">
      <path
         d="m 72.0703,25.5371 q 10.0586,0 19.1651,-3.0762 9.1066,-3.0761 16.6996,-8.667 7.592,-5.59078 13.208,-13.207962 5.615,-7.617188 8.715,-16.699238 3.101,-9.082 3.101,-19.1406 0,-10.0586 -3.101,-19.165 -3.1,-9.1065 -8.691,-16.6993 -5.591,-7.5927 -13.208,-13.208 -7.617,-5.6152 -16.7236,-8.6914 -9.1065,-3.0762 -19.1651,-3.0762 -10.0098,0 -19.1162,3.0762 -9.1064,3.0762 -16.7236,8.6914 -7.6172,5.6153 -13.208,13.208 -5.5909,7.5928 -8.667,16.6993 -3.0762,9.1064 -3.0762,19.165 0,10.0586 3.0762,19.1406 3.0761,9.08205 8.667,16.699238 5.5908,7.617182 13.208,13.207962 7.6172,5.5909 16.7236,8.667 9.1064,3.0762 19.1162,3.0762 z m 0,-2.4902 q -9.6191,0 -18.3594,-2.9541 Q 44.9707,17.1387 37.6709,11.792 30.3711,6.44531 25.0244,-0.854492 19.6777,-8.1543 16.7236,-16.8945 q -2.9541,-8.7403 -2.9541,-18.3594 0,-9.668 2.9541,-18.3838 2.9541,-8.7158 8.3008,-16.0156 5.3467,-7.2998 12.6709,-12.6709 7.3242,-5.3711 16.0401,-8.3252 8.7158,-2.9541 18.3349,-2.9541 9.668,0 18.4082,2.9541 8.7403,2.9541 16.0155,8.3252 7.276,5.3711 12.647,12.6709 5.371,7.2998 8.325,16.0156 2.954,8.7158 2.954,18.3838 -0.049,9.6191 -2.979,18.3594 -2.929,8.7402 -8.3,16.040008 Q 113.77,6.44531 106.494,11.792 99.2188,17.1387 90.4785,20.0928 81.7383,23.0469 72.0703,23.0469 Z M 40.1855,-26.416 q 0.6348,0 1.001,-0.3662 0.3662,-0.3662 0.3662,-1.0498 v -15.2344 q 0,-0.6348 -0.3662,-1.001 -0.3662,-0.3662 -1.001,-0.3662 -0.6347,0 -1.0253,0.3662 -0.3907,0.3662 -0.3907,1.001 v 15.2344 q 0,0.6836 0.3907,1.0498 0.3906,0.3662 1.0253,0.3662 z M 52.9297,-12.5 q 0.6348,0 1.0254,-0.3906 0.3906,-0.3906 0.3906,-1.0254 v -43.0176 q 0,-0.6348 -0.3906,-1.001 -0.3906,-0.3662 -1.0254,-0.3662 -0.5859,0 -0.9766,0.3662 -0.3906,0.3662 -0.3906,1.001 v 43.0176 q 0,0.6348 0.3906,1.0254 0.3907,0.3906 0.9766,0.3906 z M 65.6738,5.41992 q 0.6348,0 1.001,-0.36621 Q 67.041,4.6875 67.041,4.00391 V -74.9512 q 0,-0.6836 -0.3662,-1.0498 -0.3662,-0.3662 -1.001,-0.3662 -0.6347,0 -1.0254,0.3662 -0.3906,0.3662 -0.3906,1.0498 V 4.00391 q 0,0.68359 0.3906,1.0498 0.3907,0.36621 1.0254,0.36621 z m 12.793,-20.36132 q 0.5859,0 0.9766,-0.3662 0.3906,-0.3662 0.3906,-1.001 v -38.1836 q 0,-0.6348 -0.3906,-1.0254 -0.3907,-0.3906 -0.9766,-0.3906 -0.6348,0 -1.0254,0.3906 -0.3906,0.3906 -0.3906,1.0254 v 38.1836 q 0,0.6348 0.3906,1.001 0.3906,0.3662 1.0254,0.3662 z m 12.6953,8.10546 q 0.5859,0 0.9766,-0.39062 0.3906,-0.39063 0.3906,-1.02539 V -62.5977 q 0,-0.6347 -0.3906,-1.0253 -0.3907,-0.3907 -0.9766,-0.3907 -0.6348,0 -1.0254,0.3907 -0.3906,0.3906 -0.3906,1.0253 v 54.34575 q 0,0.63476 0.3906,1.02539 0.3906,0.39062 1.0254,0.39062 z M 103.906,-20.8984 q 0.635,0 1.026,-0.3662 0.39,-0.3663 0.39,-1.0499 V -48.584 q 0,-0.6348 -0.39,-1.001 -0.391,-0.3662 -1.026,-0.3662 -0.635,0 -1.001,0.3662 -0.366,0.3662 -0.366,1.001 v 26.2695 q 0,0.6836 0.366,1.0499 0.366,0.3662 1.001,0.3662 z"
         id="path1230" />
    </g>
    <g
       id="Black-M"
       transform="rotate(90,934.7372,1963.4539)">
      <path
         d="m 62.0605,18.1152 q 11.0352,0 20.7032,-4.1504 9.6679,-4.15035 16.9922,-11.49898 7.3241,-7.34863 11.4991,-16.99222 4.175,-9.6435 4.175,-20.6787 0,-11.0351 -4.175,-20.6787 -4.175,-9.6435 -11.4991,-16.9922 -7.3243,-7.3486 -16.9922,-11.499 -9.668,-4.1504 -20.7032,-4.1504 -10.9863,0 -20.6543,4.1504 -9.6679,4.1504 -17.0166,11.499 -7.3486,7.3487 -11.499,16.9922 -4.15037,9.6436 -4.15037,20.6787 0,11.0352 4.15037,20.6787 4.1504,9.64359 11.499,16.99222 7.3487,7.34863 17.0166,11.49898 9.668,4.1504 20.6543,4.1504 z m 0,-17.382778 q -7.4218,0 -13.9404,-2.783202 -6.5185,-2.7832 -11.4746,-7.71484 -4.956,-4.93168 -7.7393,-11.45018 -2.7832,-6.5186 -2.7832,-13.9893 0,-7.4707 2.7832,-13.9892 2.7833,-6.5186 7.7393,-11.4502 4.9561,-4.9317 11.4746,-7.7149 6.5186,-2.7832 13.9404,-2.7832 7.4707,0 13.9893,2.7832 6.5186,2.7832 11.4502,7.7149 4.9316,4.9316 7.7393,11.4502 2.8076,6.5185 2.8076,13.9892 0,7.4707 -2.8076,13.9893 -2.8077,6.5185 -7.7393,11.45018 -4.9316,4.93164 -11.4502,7.71484 -6.5186,2.783202 -13.9893,2.783202 z M 38.6719,-26.6602 q 1.5136,0 2.539,-1.0253 1.0254,-1.0254 1.0254,-2.4415 v -10.1562 q 0,-1.416 -1.0254,-2.4414 -1.0254,-1.0254 -2.539,-1.0254 -1.416,0 -2.417,1.0254 -1.001,1.0254 -1.001,2.4414 v 10.1562 q 0,1.4161 1.001,2.4415 1.001,1.0253 2.417,1.0253 z m 9.3261,10.8399 q 1.5137,0 2.5391,-1.0254 1.0254,-1.0254 1.0254,-2.3926 v -31.9336 q 0,-1.3672 -1.0254,-2.3926 -1.0254,-1.0253 -2.5391,-1.0253 -1.416,0 -2.4169,1.0253 -1.001,1.0254 -1.001,2.3926 v 31.9336 q 0,1.416 1.0254,2.417 1.0254,1.001 2.3925,1.001 z m 9.375,7.12889 q 1.4161,0 2.4415,-1.02539 1.0253,-1.0254 1.0253,-2.4902 v -45.9961 q 0,-1.5137 -1.0253,-2.5147 -1.0254,-1.001 -2.4415,-1.001 -1.4648,0 -2.4414,1.0254 -0.9765,1.0254 -0.9765,2.4903 v 45.9961 q 0,1.4648 0.9765,2.4902 0.9766,1.02539 2.4414,1.02539 z m 9.3262,-9.81449 q 1.4649,0 2.4414,-1.0009 0.9766,-1.001 0.9766,-2.4659 v -26.4648 q 0,-1.5137 -1.001,-2.4902 -1.001,-0.9766 -2.417,-0.9766 -1.4648,0 -2.4658,1.001 -1.001,1.001 -1.001,2.4658 v 26.4648 q 0,1.4649 1.001,2.4659 1.001,1.0009 2.4658,1.0009 z m 9.2774,4.7364 q 1.4648,0 2.4414,-1.001 0.9765,-1.001 0.9765,-2.4658 v -35.9864 q 0,-1.416 -0.9765,-2.4169 -0.9766,-1.001 -2.4414,-1.001 -1.5137,0 -2.4903,1.001 -0.9765,1.0009 -0.9765,2.4169 v 35.9864 q 0,1.4648 1.0009,2.4658 1.001,1.001 2.4659,1.001 z m 9.2773,-10.791 q 1.4649,0 2.4414,-1.001 0.9766,-1.001 0.9766,-2.4658 v -14.3555 q 0,-1.4649 -1.001,-2.4658 -1.001,-1.001 -2.417,-1.001 -1.4648,0 -2.4658,1.001 -1.001,1.0009 -1.001,2.4658 v 14.3555 q 0,1.4648 1.001,2.4658 1.001,1.001 2.4658,1.001 z"
         id="path1233" />
    </g>
    <g
       id="Heavy-M"
       transform="rotate(90,785.96821,1815.5062)">
      <path
         d="m 61.2305,17.2852 q 10.8398,0 20.3613,-4.1016 9.5215,-4.10157 16.7236,-11.32813 7.2026,-7.22656 11.3286,-16.72367 4.126,-9.497 4.126,-20.3369 0,-10.8398 -4.126,-20.3369 -4.126,-9.4971 -11.3286,-16.748 -7.2021,-7.251 -16.7236,-11.3282 -9.5215,-4.0771 -20.3613,-4.0771 -10.791,0 -20.3125,4.0771 -9.5215,4.0772 -16.7481,11.3282 -7.2265,7.2509 -11.3281,16.748 -4.10157,9.4971 -4.10157,20.3369 0,10.8399 4.10157,20.3369 4.1016,9.49711 11.3281,16.72367 7.2266,7.22656 16.7481,11.32813 9.5215,4.1016 20.3125,4.1016 z m 0,-15.23442 q -7.7149,0 -14.4776,-2.905272 -6.7627,-2.905278 -11.8896,-8.007808 -5.127,-5.1025 -8.0078,-11.8652 -2.8809,-6.7627 -2.8809,-14.4776 0,-7.7637 2.8809,-14.5263 2.8808,-6.7627 8.0078,-11.8653 5.1269,-5.1025 11.8896,-7.9834 6.7627,-2.8808 14.4776,-2.8808 7.7148,0 14.4775,2.8808 6.7627,2.8809 11.8897,7.9834 5.1269,5.1026 8.0322,11.8653 2.9053,6.7626 2.9053,14.5263 0,7.7149 -2.9053,14.4776 -2.9053,6.7627 -8.0078,11.8652 -5.1026,5.10253 -11.8653,8.007808 Q 68.9941,2.05078 61.2305,2.05078 Z M 37.5488,-27.002 q 1.416,0 2.417,-0.9765 1.001,-0.9766 1.001,-2.3438 v -9.8144 q 0,-1.3672 -1.001,-2.3438 -1.001,-0.9765 -2.417,-0.9765 -1.3672,0 -2.3437,0.9765 -0.9766,0.9766 -0.9766,2.3438 v 9.8144 q 0,1.3672 0.9766,2.3438 0.9765,0.9765 2.3437,0.9765 z m 9.4239,11.084 q 1.4648,0 2.4414,-1.0009 0.9765,-1.001 0.9765,-2.3194 v -31.9824 q 0,-1.3184 -0.9765,-2.2949 -0.9766,-0.9766 -2.4414,-0.9766 -1.3672,0 -2.3194,0.9766 -0.9521,0.9765 -0.9521,2.2949 v 31.9824 q 0,1.3672 0.9765,2.3438 0.9766,0.9765 2.295,0.9765 z m 9.5214,8.49612 q 1.3672,0 2.3438,-0.97656 0.9766,-0.97656 0.9766,-2.39256 v -48.8281 q 0,-1.4649 -0.9766,-2.4414 -0.9766,-0.9766 -2.3438,-0.9766 -1.416,0 -2.3681,1.001 -0.9522,1.0009 -0.9522,2.417 v 48.8281 q 0,1.416 0.9522,2.39256 0.9521,0.97656 2.3681,0.97656 z m 9.4727,-11.47462 q 1.416,0 2.3682,-0.9765 0.9521,-0.9766 0.9521,-2.3438 v -25.9766 q 0,-1.4648 -0.9766,-2.3925 -0.9765,-0.9278 -2.3437,-0.9278 -1.416,0 -2.3926,0.9522 -0.9765,0.9521 -0.9765,2.3681 v 25.9766 q 0,1.3672 0.9765,2.3438 0.9766,0.9765 2.3926,0.9765 z m 9.4238,5.957 q 1.416,0 2.3438,-0.9521 0.9277,-0.9522 0.9277,-2.3682 V -54.248 q 0,-1.3672 -0.9277,-2.3194 -0.9278,-0.9521 -2.3438,-0.9521 -1.4648,0 -2.417,0.9521 -0.9521,0.9522 -0.9521,2.3194 v 37.9882 q 0,1.416 0.9765,2.3682 0.9766,0.9521 2.3926,0.9521 z m 9.4239,-11.8652 q 1.416,0 2.3437,-0.9521 0.9277,-0.9522 0.9277,-2.3682 v -14.1602 q 0,-1.416 -0.9521,-2.3925 -0.9522,-0.9766 -2.3193,-0.9766 -1.4161,0 -2.3926,0.9766 -0.9766,0.9765 -0.9766,2.3925 v 14.1602 q 0,1.3672 0.9766,2.3438 0.9765,0.9765 2.3926,0.9765 z"
         id="path1236" />
    </g>
    <g
       id="Bold-M"
       transform="rotate(90,637.14614,1667.5972)">
      <path
         d="m 60.3027,16.3574 q 10.6446,0 19.9707,-4.0283 9.3262,-4.02832 16.4307,-11.15722 7.1049,-7.12891 11.1569,-16.45508 4.053,-9.3262 4.053,-19.9707 0,-10.5957 -4.053,-19.9219 -4.052,-9.3262 -11.1569,-16.4551 -7.1045,-7.1289 -16.4551,-11.1572 -9.3506,-4.0283 -19.9463,-4.0283 -10.5957,0 -19.9463,4.0283 -9.3505,4.0283 -16.455,11.1572 -7.1045,7.1289 -11.1328,16.4551 -4.02837,9.3262 -4.02837,19.9219 0,10.6445 4.02837,19.9707 4.0283,9.32617 11.1572,16.45508 7.1289,7.1289 16.4551,11.15722 9.3261,4.0283 19.9218,4.0283 z m 0,-12.84178 q -8.0078,0 -15.039,-3.027339 Q 38.2324,-2.53906 32.9102,-7.83691 27.5879,-13.1348 24.6094,-20.166 q -2.9785,-7.0313 -2.9785,-15.0879 0,-8.0566 2.9785,-15.0635 2.9785,-7.0068 8.3008,-12.3291 5.3222,-5.3223 12.3291,-8.3252 7.0068,-3.0029 15.0634,-3.0029 8.0567,0 15.0635,3.0029 7.0068,3.0029 12.3291,8.3252 5.3223,5.3223 8.3496,12.3291 3.0274,7.0069 3.0274,15.0635 0,8.0566 -3.003,15.0879 -3.0029,7.0312 -8.3252,12.32909 Q 82.4219,-2.53906 75.3906,0.488281 68.3594,3.51562 60.3027,3.51562 Z M 36.2305,-27.4414 q 1.3672,0 2.3193,-0.9277 0.9522,-0.9278 0.9522,-2.2461 v -9.375 q 0,-1.3184 -0.9522,-2.2461 -0.9521,-0.9278 -2.3193,-0.9278 -1.3184,0 -2.2461,0.9278 -0.9278,0.9277 -0.9278,2.2461 v 9.375 q 0,1.3183 0.9278,2.2461 0.9277,0.9277 2.2461,0.9277 z m 9.6191,11.3281 q 1.3672,0 2.3193,-0.9521 0.9522,-0.9522 0.9522,-2.2217 v -32.0313 q 0,-1.3183 -0.9522,-2.2461 -0.9521,-0.9277 -2.3193,-0.9277 -1.3184,0 -2.2461,0.9277 -0.9277,0.9278 -0.9277,2.2461 v 32.0313 q 0,1.3183 0.9521,2.2461 0.9522,0.9277 2.2217,0.9277 z m 9.668,10.05861 q 1.3183,0 2.2461,-0.92773 0.9277,-0.92774 0.9277,-2.29492 V -61.2793 q 0,-1.416 -0.9277,-2.3437 -0.9278,-0.9278 -2.2461,-0.9278 -1.3672,0 -2.2705,0.9522 -0.9033,0.9521 -0.9033,2.3193 v 52.00196 q 0,1.36718 0.9033,2.29492 0.9033,0.92773 2.2705,0.92773 z m 9.5703,-13.37891 q 1.3672,0 2.2949,-0.9033 0.9277,-0.9033 0.9277,-2.2705 V -47.998 q 0,-1.3672 -0.9277,-2.2706 -0.9277,-0.9033 -2.2949,-0.9033 -1.3184,0 -2.2461,0.9033 -0.9277,0.9034 -0.9277,2.2706 v 25.3906 q 0,1.3672 0.9277,2.2705 0.9277,0.9033 2.2461,0.9033 z m 9.6191,7.4219 q 1.3184,0 2.2461,-0.9278 0.9278,-0.9277 0.9278,-2.246 v -40.2344 q 0,-1.3184 -0.9278,-2.2461 -0.9277,-0.9278 -2.2461,-0.9278 -1.3672,0 -2.2949,0.9278 -0.9277,0.9277 -0.9277,2.2461 v 40.2344 q 0,1.3183 0.9277,2.246 0.9277,0.9278 2.2949,0.9278 z m 9.6192,-13.1348 q 1.3183,0 2.2217,-0.9033 0.9033,-0.9033 0.9033,-2.2705 v -13.9649 q 0,-1.3671 -0.9033,-2.2705 -0.9034,-0.9033 -2.2217,-0.9033 -1.3672,0 -2.295,0.9278 -0.9277,0.9277 -0.9277,2.246 v 13.9649 q 0,1.3183 0.9277,2.2461 0.9278,0.9277 2.295,0.9277 z"
         id="path1239" />
    </g>
    <g
       id="Semibold-M"
       transform="rotate(90,488.4651,1519.5595)">
      <path
         d="m 59.668,15.6738 q 10.4492,0 19.6777,-3.9795 9.2285,-3.97946 16.2598,-11.010706 7.0315,-7.031254 11.0105,-16.235394 3.98,-9.2041 3.98,-19.7021 0,-10.4492 -3.98,-19.6533 -3.979,-9.2041 -11.0105,-16.2354 -7.0313,-7.0312 -16.2598,-11.0351 -9.2285,-4.0039 -19.7266,-4.0039 -10.4492,0 -19.6533,4.0039 -9.2041,4.0039 -16.2353,11.0351 -7.0313,7.0313 -11.0108,16.2354 -3.97947,9.2041 -3.97947,19.6533 0,10.498 3.97947,19.7021 3.9795,9.20414 11.0108,16.235394 7.0312,7.031246 16.2597,11.010706 9.2286,3.9795 19.6778,3.9795 z m 0,-11.18161 q -8.252,0 -15.4541,-3.07617 -7.2022,-3.07618 -12.6709,-8.52051 -5.4688,-5.44431 -8.5205,-12.64651 -3.0518,-7.2021 -3.0518,-15.5029 0,-8.252 3.0518,-15.4541 3.0517,-7.2022 8.4961,-12.6709 5.4443,-5.4688 12.6464,-8.5205 7.2022,-3.0518 15.4541,-3.0518 8.3008,0 15.503,3.0518 7.2021,3.0517 12.6465,8.5205 5.4443,5.4687 8.5449,12.6709 3.1006,7.2021 3.1006,15.4541 0,8.3008 -3.0762,15.5029 -3.0762,7.2022 -8.5205,12.64651 Q 82.373,-1.66016 75.1465,1.41602 67.9199,4.49219 59.668,4.49219 Z M 35.3027,-27.6855 q 1.3184,0 2.2217,-0.879 0.9033,-0.8789 0.9033,-2.1972 v -9.0821 q 0,-1.3183 -0.9033,-2.1972 -0.9033,-0.8789 -2.2217,-0.8789 -1.2695,0 -2.1728,0.8789 -0.9033,0.8789 -0.9033,2.1972 v 9.0821 q 0,1.3183 0.9033,2.1972 0.9033,0.879 2.1728,0.879 z m 9.7168,11.4746 q 1.3184,0 2.2217,-0.9034 0.9033,-0.9033 0.9033,-2.1728 v -32.0801 q 0,-1.2695 -0.9033,-2.1484 -0.9033,-0.8789 -2.2217,-0.8789 -1.2695,0 -2.1728,0.8789 -0.9033,0.8789 -0.9033,2.1484 v 32.0801 q 0,1.2695 0.9033,2.1728 0.9033,0.9034 2.1728,0.9034 z m 9.7657,11.1816 q 1.2695,0 2.1728,-0.92773 0.9033,-0.92774 0.9033,-2.24609 V -62.4023 q 0,-1.3184 -0.9033,-2.2217 -0.9033,-0.9033 -2.1728,-0.9033 -1.3184,0 -2.1973,0.9033 -0.8789,0.9033 -0.8789,2.2217 v 54.19918 q 0,1.36718 0.8789,2.2705 0.8789,0.90332 2.1973,0.90332 z m 9.6679,-14.6973 q 1.3672,0 2.2461,-0.8789 0.8789,-0.8789 0.8789,-2.1972 v -25 q 0,-1.3184 -0.9033,-2.1973 -0.9033,-0.8789 -2.2217,-0.8789 -1.2695,0 -2.1484,0.8789 -0.8789,0.8789 -0.8789,2.1973 v 25 q 0,1.3183 0.8789,2.1972 0.8789,0.8789 2.1484,0.8789 z m 9.7168,8.3496 q 1.3184,0 2.1973,-0.8789 0.8789,-0.8789 0.8789,-2.1484 v -41.7969 q 0,-1.2695 -0.8789,-2.1728 -0.8789,-0.9033 -2.1973,-0.9033 -1.3183,0 -2.1972,0.9033 -0.8789,0.9033 -0.8789,2.1728 v 41.7969 q 0,1.2695 0.9033,2.1484 0.9033,0.8789 2.1728,0.8789 z m 9.7656,-13.9648 q 1.2696,0 2.1485,-0.8789 0.8789,-0.8789 0.8789,-2.1973 v -13.7695 q 0,-1.3184 -0.8789,-2.1973 -0.8789,-0.8789 -2.1485,-0.8789 -1.3183,0 -2.2216,0.8789 -0.9034,0.8789 -0.9034,2.1973 v 13.7695 q 0,1.3184 0.9034,2.1973 0.9033,0.8789 2.2216,0.8789 z"
         id="path1242" />
    </g>
    <g
       id="Medium-M"
       transform="rotate(90,339.86038,1371.4279)">
      <path
         d="m 59.1797,15.1855 q 10.3515,0 19.4824,-3.955 9.1309,-3.95511 16.0889,-10.913117 6.958,-6.958003 10.913,-16.088883 3.955,-9.1308 3.955,-19.4824 0,-10.3516 -3.955,-19.4824 -3.955,-9.1309 -10.913,-16.0889 -6.958,-6.958 -16.1133,-10.9131 -9.1553,-3.9551 -19.5068,-3.9551 -10.3516,0 -19.4825,3.9551 -9.1308,3.9551 -16.0644,10.9131 -6.9336,6.958 -10.8887,16.0889 -3.95507,9.1308 -3.95507,19.4824 0,10.3516 3.95507,19.4824 3.9551,9.13088 10.9131,16.088883 6.958,6.958007 16.0889,10.913117 9.1308,3.955 19.4824,3.955 z m 0,-9.91206 q -8.4473,0 -15.7715,-3.14942 -7.3242,-3.14941 -12.8906,-8.71582 -5.5664,-5.5664 -8.6914,-12.8906 -3.125,-7.3242 -3.125,-15.7715 0,-8.4473 3.125,-15.7715 3.125,-7.3242 8.667,-12.8906 5.542,-5.5664 12.8906,-8.6914 7.3486,-3.125 15.7471,-3.125 8.4472,0 15.7714,3.125 7.3243,3.125 12.9151,8.6914 5.5908,5.5664 8.7402,12.8906 3.1494,7.3242 3.1494,15.7715 0,8.4473 -3.125,15.7715 -3.125,7.3242 -8.6914,12.8906 -5.5664,5.56641 -12.915,8.71582 Q 67.627,5.27344 59.1797,5.27344 Z M 34.6191,-27.8809 q 1.2696,0 2.1485,-0.8545 0.8789,-0.8544 0.8789,-2.124 v -8.9355 q 0,-1.2207 -0.8789,-2.0996 -0.8789,-0.8789 -2.1485,-0.8789 -1.2695,0 -2.1484,0.8789 -0.8789,0.8789 -0.8789,2.0996 v 8.9355 q 0,1.2696 0.8789,2.124 0.8789,0.8545 2.1484,0.8545 z m 9.8145,11.6211 q 1.2695,0 2.1484,-0.8789 0.8789,-0.8789 0.8789,-2.1484 v -32.0801 q 0,-1.2695 -0.8789,-2.124 -0.8789,-0.8545 -2.1484,-0.8545 -1.2695,0 -2.1484,0.8545 -0.879,0.8545 -0.879,2.124 v 32.0801 q 0,1.2695 0.879,2.1484 0.8789,0.8789 2.1484,0.8789 z m 9.8144,11.96292 q 1.2208,0 2.1241,-0.8789 0.9033,-0.87891 0.9033,-2.19727 V -63.2324 q 0,-1.3184 -0.9033,-2.1973 -0.9033,-0.8789 -2.1241,-0.8789 -1.3183,0 -2.1728,0.9033 -0.8545,0.9033 -0.8545,2.1729 v 55.85935 q 0,1.36719 0.8545,2.22168 0.8545,0.85449 2.1728,0.85449 z m 9.7657,-15.67382 q 1.2695,0 2.1484,-0.8545 0.8789,-0.8545 0.8789,-2.124 v -24.7559 q 0,-1.2695 -0.8789,-2.124 -0.8789,-0.8545 -2.1484,-0.8545 -1.2696,0 -2.1241,0.8789 -0.8544,0.8789 -0.8544,2.0996 v 24.7559 q 0,1.2695 0.8544,2.124 0.8545,0.8545 2.1241,0.8545 z m 9.7656,9.1309 q 1.2695,0 2.1484,-0.879 0.8789,-0.8789 0.8789,-2.0996 v -42.9687 q 0,-1.2695 -0.8789,-2.124 -0.8789,-0.8545 -2.1484,-0.8545 -1.2695,0 -2.1484,0.8545 -0.8789,0.8545 -0.8789,2.124 v 42.9687 q 0,1.2207 0.8789,2.0996 0.8789,0.879 2.1484,0.879 z m 9.8633,-14.6485 q 1.2695,0 2.124,-0.8301 0.8545,-0.83 0.8545,-2.1484 v -13.6719 q 0,-1.3183 -0.8545,-2.1484 -0.8545,-0.8301 -2.124,-0.8301 -1.3184,0 -2.1973,0.8545 -0.8789,0.8545 -0.8789,2.124 v 13.6719 q 0,1.2695 0.8789,2.124 0.8789,0.8545 2.1973,0.8545 z"
         id="path1245" />
    </g>
    <g
       id="Regular-M"
       transform="rotate(90,191.19066,1223.3929)">
      <path
         d="m 58.5449,14.5508 q 10.2051,0 19.2139,-3.9063 Q 86.7676,6.73828 93.6523,-0.146484 100.537,-7.03125 104.443,-16.04 q 3.907,-9.0088 3.907,-19.2139 0,-10.2051 -3.907,-19.2139 -3.906,-9.0088 -10.7907,-15.8935 -6.8847,-6.8848 -15.9179,-10.791 -9.0332,-3.9063 -19.2383,-3.9063 -10.2051,0 -19.2139,3.9063 -9.0088,3.9062 -15.8691,10.791 -6.8604,6.8847 -10.7666,15.8935 -3.90627,9.0088 -3.90627,19.2139 0,10.2051 3.90627,19.2139 3.9062,9.00875 10.791,15.893516 6.8848,6.884764 15.8936,10.790984 9.0087,3.9063 19.2138,3.9063 z m 0,-8.3008 q -8.6426,0 -16.1621,-3.22266 -7.5195,-3.222652 -13.208,-8.91113 -5.6885,-5.68851 -8.8867,-13.20801 -3.1983,-7.5195 -3.1983,-16.1621 0,-8.6426 3.1983,-16.1621 3.1982,-7.5195 8.8623,-13.2324 5.6641,-5.7129 13.1836,-8.9112 7.5195,-3.1982 16.1621,-3.1982 8.6426,0 16.1621,3.1982 7.5195,3.1983 13.2324,8.9112 5.7129,5.7129 8.9356,13.2324 3.2228,7.5195 3.2228,16.1621 0,8.6426 -3.1984,16.1621 -3.1983,7.5195 -8.8867,13.20801 Q 82.2754,-0.195312 74.7314,3.02734 67.1875,6.25 58.5449,6.25 Z M 33.7402,-28.125 q 1.2207,0 2.0752,-0.8301 0.8545,-0.8301 0.8545,-2.0508 v -8.6425 q 0,-1.2207 -0.8545,-2.0508 -0.8545,-0.8301 -2.0752,-0.8301 -1.2207,0 -2.0752,0.8301 -0.8545,0.8301 -0.8545,2.0508 v 8.6425 q 0,1.2207 0.8545,2.0508 0.8545,0.8301 2.0752,0.8301 z m 9.9121,11.7676 q 1.2207,0 2.0752,-0.8545 0.8545,-0.8545 0.8545,-2.0752 V -51.416 q 0,-1.2207 -0.8545,-2.0508 -0.8545,-0.8301 -2.0752,-0.8301 -1.2207,0 -2.0752,0.8301 -0.8544,0.8301 -0.8544,2.0508 v 32.1289 q 0,1.2207 0.8544,2.0752 0.8545,0.8545 2.0752,0.8545 z m 9.9122,13.03709 q 1.2207,0 2.0751,-0.85449 0.8545,-0.8545 0.8545,-2.12403 V -64.3066 q 0,-1.2696 -0.8545,-2.1241 -0.8544,-0.8545 -2.0751,-0.8545 -1.2696,0 -2.0997,0.8545 -0.83,0.8545 -0.83,2.1241 v 58.00777 q 0,1.31836 0.83,2.14844 0.8301,0.83008 2.0997,0.83008 z m 9.8632,-16.94339 q 1.2696,0 2.1241,-0.8301 0.8544,-0.83 0.8544,-2.0507 v -24.3653 q 0,-1.2207 -0.8544,-2.0507 -0.8545,-0.8301 -2.1241,-0.8301 -1.2207,0 -2.0507,0.8301 -0.8301,0.83 -0.8301,2.0507 v 24.3653 q 0,1.2207 0.8301,2.0507 0.83,0.8301 2.0507,0.8301 z m 9.9121,10.0586 q 1.2207,0 2.0752,-0.8301 0.8545,-0.83 0.8545,-2.0507 v -44.4825 q 0,-1.2207 -0.8545,-2.0507 -0.8545,-0.8301 -2.0752,-0.8301 -1.2207,0 -2.0752,0.8301 -0.8544,0.83 -0.8544,2.0507 v 44.4825 q 0,1.2207 0.8544,2.0507 0.8545,0.8301 2.0752,0.8301 z m 9.961,-15.4785 q 1.2207,0 2.0508,-0.8057 0.83,-0.8056 0.83,-2.0752 v -13.5253 q 0,-1.2696 -0.83,-2.0752 -0.8301,-0.8057 -2.0508,-0.8057 -1.2696,0 -2.124,0.8301 -0.8545,0.8301 -0.8545,2.0508 v 13.5253 q 0,1.2207 0.8545,2.0508 0.8544,0.8301 2.124,0.8301 z"
         id="path1248" />
    </g>
    <g
       id="Light-M"
       transform="rotate(90,42.415455,1075.448)">
      <path
         d="m 57.7148,13.7207 q 10.0586,0 18.9209,-3.833 Q 85.498,6.05469 92.2607,-0.708008 99.0234,-7.4707 102.856,-16.333 q 3.833,-8.8623 3.833,-18.9209 0,-10.0586 -3.833,-18.9209 -3.8326,-8.8623 -10.5953,-15.625 -6.7627,-6.7627 -15.6494,-10.5957 -8.8867,-3.833 -18.9453,-3.833 -10.0586,0 -18.9209,3.833 -8.8623,3.833 -15.6006,10.5957 -6.7383,6.7627 -10.5713,15.625 -3.83297,8.8623 -3.83297,18.9209 0,10.0586 3.83297,18.9209 3.833,8.8623 10.5957,15.624992 6.7627,6.762698 15.625,10.595708 8.8623,3.833 18.9209,3.833 z m 0,-6.34765 q -8.8378,0 -16.5771,-3.2959 -7.7393,-3.2959 -13.5986,-9.15527 -5.8594,-5.85938 -9.1553,-13.59868 -3.2959,-7.7392 -3.2959,-16.5771 0,-8.8379 3.2959,-16.5772 3.2959,-7.7392 9.1553,-13.623 5.8593,-5.8838 13.5742,-9.1797 7.7148,-3.2959 16.5527,-3.2959 8.8867,0 16.6016,3.2959 7.7148,3.2959 13.5986,9.1797 5.8838,5.8838 9.2041,13.623 3.3207,7.7393 3.3207,16.5772 0,8.8379 -3.3207,16.5771 -3.3203,7.7393 -9.1553,13.59868 -5.8349,5.85937 -13.5742,9.15527 -7.7392,3.2959 -16.626,3.2959 z M 32.9102,-28.2227 q 1.0253,0 1.6845,-0.6591 0.6592,-0.6592 0.6592,-1.6358 v -9.6679 q 0,-0.9766 -0.6592,-1.6358 -0.6592,-0.6592 -1.6845,-0.6592 -0.9766,0 -1.6602,0.6592 -0.6836,0.6592 -0.6836,1.6358 v 9.6679 q 0,0.9766 0.6836,1.6358 0.6836,0.6591 1.6602,0.6591 z m 9.9121,11.4747 q 1.0254,0 1.6845,-0.6836 0.6592,-0.6836 0.6592,-1.709 v -32.4707 q 0,-1.0254 -0.6592,-1.6846 -0.6591,-0.6592 -1.6845,-0.6592 -0.9766,0 -1.6602,0.6592 -0.6836,0.6592 -0.6836,1.6846 v 32.4707 q 0,1.0254 0.6836,1.709 0.6836,0.6836 1.6602,0.6836 z m 9.9121,13.2812 q 0.9765,0 1.6601,-0.68359 0.6836,-0.68359 0.6836,-1.70899 V -64.8438 q 0,-1.0253 -0.6836,-1.7089 -0.6836,-0.6836 -1.6601,-0.6836 -1.0254,0 -1.6846,0.6836 -0.6592,0.6836 -0.6592,1.7089 v 58.98442 q 0,1.07422 0.6592,1.7334 0.6592,0.65918 1.6846,0.65918 z m 9.8633,-16.5527 q 1.0253,0 1.7089,-0.6836 0.6836,-0.6836 0.6836,-1.6602 v -25.9765 q 0,-0.9766 -0.6836,-1.6602 -0.6836,-0.6836 -1.7089,-0.6836 -0.9766,0 -1.6602,0.6836 -0.6836,0.6836 -0.6836,1.6602 v 25.9765 q 0,0.9766 0.6836,1.6602 0.6836,0.6836 1.6602,0.6836 z m 9.9121,8.8379 q 0.9765,0 1.6601,-0.6592 0.6836,-0.6592 0.6836,-1.6358 v -43.75 q 0,-1.0254 -0.6836,-1.6845 -0.6836,-0.6592 -1.6601,-0.6592 -1.0254,0 -1.709,0.6592 -0.6836,0.6591 -0.6836,1.6845 v 43.75 q 0,0.9766 0.6836,1.6358 0.6836,0.6592 1.709,0.6592 z m 9.9121,-14.0137 q 1.0254,0 1.6845,-0.6592 0.6592,-0.6592 0.6592,-1.6846 v -15.625 q 0,-1.0254 -0.6592,-1.6845 -0.6591,-0.6592 -1.6845,-0.6592 -1.0254,0 -1.709,0.6592 -0.6836,0.6591 -0.6836,1.6845 v 15.625 q 0,0.9766 0.6836,1.6602 0.6836,0.6836 1.709,0.6836 z"
         id="path1251" />
    </g>
    <g
       id="Thin-M"
       transform="rotate(90,-106.47352,927.64412)">
      <path
         d="m 56.5918,12.5977 q 9.9121,0 18.5791,-3.71098 8.667,-3.71094 15.2588,-10.32715 6.5918,-6.61621 10.3513,-15.28317 3.76,-8.667 3.76,-18.5303 0,-9.8633 -3.76,-18.5303 -3.7595,-8.667 -10.3513,-15.2832 -6.5918,-6.6162 -15.2588,-10.3271 -8.667,-3.711 -18.5791,-3.711 -9.8633,0 -18.5303,3.711 -8.667,3.7109 -15.2344,10.3271 -6.5673,6.6162 -10.3271,15.2832 -3.75977,8.667 -3.75977,18.5303 0,9.8633 3.73537,18.5303 3.7353,8.66696 10.3271,15.28317 6.5918,6.61621 15.2832,10.32715 8.6914,3.71098 18.5059,3.71098 z m 0,-3.71098 q -9.1309,0 -17.1143,-3.44238 Q 31.4941,2.00195 25.415,-4.05273 19.3359,-10.1074 15.918,-18.1152 12.5,-26.123 12.5,-35.2539 q 0,-9.1309 3.418,-17.1387 3.4179,-8.0078 9.497,-14.0869 6.0791,-6.0791 14.0625,-9.5215 7.9834,-3.4424 17.1143,-3.4424 9.1797,0 17.1631,3.4424 7.9834,3.4424 14.0625,9.5215 6.0791,6.0791 9.5215,14.0869 3.4421,8.0078 3.4421,17.1387 0,9.1309 -3.4177,17.1387 -3.418,8.0078 -9.4971,14.06247 Q 81.7871,2.00195 73.7793,5.44434 65.7715,8.88672 56.5918,8.88672 Z M 31.8848,-28.2715 q 0.6836,0 1.123,-0.4394 0.4395,-0.4395 0.4395,-1.1719 v -10.8887 q 0,-0.7324 -0.4395,-1.1719 -0.4394,-0.4394 -1.123,-0.4394 -0.7325,0 -1.1719,0.4394 -0.4395,0.4395 -0.4395,1.1719 v 10.8887 q 0,0.7324 0.4395,1.1719 0.4394,0.4394 1.1719,0.4394 z m 9.9121,11.0352 q 0.6836,0 1.123,-0.4639 0.4395,-0.4639 0.4395,-1.1475 v -33.0078 q 0,-0.6836 -0.4395,-1.123 -0.4394,-0.4395 -1.123,-0.4395 -0.7324,0 -1.1719,0.4395 -0.4395,0.4394 -0.4395,1.123 v 33.0078 q 0,0.6836 0.4395,1.1475 0.4395,0.4639 1.1719,0.4639 z m 9.8633,13.67185 q 0.6836,0 1.1474,-0.46387 0.4639,-0.46387 0.4639,-1.14746 V -65.5273 q 0,-0.6836 -0.4639,-1.1475 -0.4638,-0.4639 -1.1474,-0.4639 -0.7325,0 -1.1719,0.4639 -0.4395,0.4639 -0.4395,1.1475 v 60.35152 q 0,0.73242 0.4395,1.17187 0.4394,0.43946 1.1719,0.43946 z m 9.9121,-16.11325 q 0.6836,0 1.1474,-0.4395 0.4639,-0.4394 0.4639,-1.1719 v -28.0761 q 0,-0.7325 -0.4639,-1.1719 -0.4638,-0.4395 -1.1474,-0.4395 -0.7325,0 -1.1719,0.4395 -0.4395,0.4394 -0.4395,1.1719 v 28.0761 q 0,0.7325 0.4395,1.1719 0.4394,0.4395 1.1719,0.4395 z m 9.8144,7.3242 q 0.6836,0 1.1719,-0.4395 0.4883,-0.4394 0.4883,-1.1718 v -42.7735 q 0,-0.6836 -0.4883,-1.123 -0.4883,-0.4395 -1.1719,-0.4395 -0.6836,0 -1.123,0.4395 -0.4395,0.4394 -0.4395,1.123 v 42.7735 q 0,0.7324 0.4395,1.1718 0.4394,0.4395 1.123,0.4395 z m 9.9121,-12.207 q 0.7324,0 1.1719,-0.4151 0.4395,-0.415 0.4395,-1.1474 v -18.4571 q 0,-0.6836 -0.4395,-1.123 -0.4395,-0.4395 -1.1719,-0.4395 -0.6836,0 -1.123,0.4395 -0.4395,0.4394 -0.4395,1.123 v 18.4571 q 0,0.6835 0.4395,1.123 0.4394,0.4395 1.123,0.4395 z"
         id="path1254" />
    </g>
    <g
       id="Ultralight-M"
       transform="rotate(90,-255.11186,779.56894)">
      <path
         d="m 56.0547,12.0605 q 9.7656,0 18.3349,-3.68648 8.5694,-3.68652 15.0879,-10.20507 6.5186,-6.51856 10.2295,-15.08785 3.711,-8.5694 3.711,-18.335 0,-9.7656 -3.711,-18.335 -3.7109,-8.5693 -10.2295,-15.0879 -6.5185,-6.5185 -15.0879,-10.205 -8.5693,-3.6866 -18.3349,-3.6866 -9.7656,0 -18.335,3.6866 -8.5693,3.6865 -15.0635,10.205 -6.4941,6.5186 -10.205,15.0879 -3.71097,8.5694 -3.71097,18.335 0,9.7656 3.68657,18.335 3.6865,8.56929 10.205,15.08785 6.5186,6.51855 15.0879,10.20507 8.5694,3.68648 18.335,3.68648 z m 0,-2.39253 q -9.2774,0 -17.4072,-3.49121 -8.1299,-3.49121 -14.3311,-9.66797 -6.2012,-6.17676 -9.6924,-14.33109 -3.4912,-8.1543 -3.4912,-17.4316 0,-9.2773 3.4912,-17.4316 3.4912,-8.1543 9.6924,-14.3555 6.2012,-6.2012 14.3311,-9.6924 8.1298,-3.4912 17.4072,-3.4912 9.3262,0 17.456,3.4912 8.1299,3.4912 14.3067,9.6924 6.1767,6.2012 9.6924,14.3555 3.5152,8.1543 3.5152,17.4316 0,9.2773 -3.5152,17.4316 -3.5157,8.15433 -9.6924,14.33109 -6.1768,6.17676 -14.3067,9.66797 -8.1298,3.49121 -17.456,3.49121 z M 31.3477,-28.3691 q 0.5371,0 0.8544,-0.3174 0.3174,-0.3174 0.3174,-0.8545 v -11.6211 q 0,-0.5859 -0.3174,-0.9033 -0.3173,-0.3174 -0.8544,-0.3174 -0.5372,0 -0.8789,0.3174 -0.3418,0.3174 -0.3418,0.9033 v 11.6211 q 0,0.5371 0.3418,0.8545 0.3417,0.3174 0.8789,0.3174 z m 9.9121,10.8398 q 0.5371,0 0.8545,-0.3418 0.3173,-0.3418 0.3173,-0.8789 v -33.252 q 0,-0.5371 -0.3173,-0.8789 -0.3174,-0.3418 -0.8545,-0.3418 -0.5371,0 -0.8789,0.3418 -0.3418,0.3418 -0.3418,0.8789 v 33.252 q 0,0.5371 0.3418,0.8789 0.3418,0.3418 0.8789,0.3418 z m 9.8632,13.81836 q 0.5372,0 0.8545,-0.31738 0.3174,-0.31738 0.3174,-0.85449 V -65.918 q 0,-0.5371 -0.3174,-0.8545 -0.3173,-0.3173 -0.8545,-0.3173 -0.5371,0 -0.8789,0.3173 -0.3418,0.3174 -0.3418,0.8545 v 61.03519 q 0,0.53711 0.3418,0.85449 0.3418,0.31738 0.8789,0.31738 z m 9.9122,-15.82026 q 0.5371,0 0.8544,-0.3418 0.3174,-0.3418 0.3174,-0.9278 v -29.1504 q 0,-0.5371 -0.3174,-0.8789 -0.3173,-0.3418 -0.8544,-0.3418 -0.5372,0 -0.9034,0.3418 -0.3662,0.3418 -0.3662,0.8789 v 29.1504 q 0,0.586 0.3662,0.9278 0.3662,0.3418 0.9034,0.3418 z m 9.8144,6.4941 q 0.5371,0 0.8789,-0.3174 0.3418,-0.3174 0.3418,-0.8545 v -42.334 q 0,-0.5371 -0.3418,-0.8545 -0.3418,-0.3173 -0.8789,-0.3173 -0.5371,0 -0.8789,0.3173 -0.3418,0.3174 -0.3418,0.8545 v 42.334 q 0,0.5371 0.3418,0.8545 0.3418,0.3174 0.8789,0.3174 z m 9.9121,-11.1817 q 0.5371,0 0.8545,-0.3417 0.3174,-0.3418 0.3174,-0.879 v -19.873 q 0,-0.5371 -0.3174,-0.8789 -0.3174,-0.3418 -0.8545,-0.3418 -0.5371,0 -0.8789,0.3418 -0.3418,0.3418 -0.3418,0.8789 v 19.873 q 0,0.5372 0.3418,0.879 0.3418,0.3417 0.8789,0.3417 z"
         id="path1257" />
    </g>
    <g
       id="Black-S"
       transform="rotate(90,1143.1131,1755.0798)">
      <path
         d="m 48.8281,6.78711 q 8.6914,0 16.2842,-3.27149 7.5928,-3.271479 13.3789,-9.05761 5.7861,-5.78611 9.0576,-13.37891 3.2715,-7.5928 3.2715,-16.2842 0,-8.6914 -3.2715,-16.2842 -3.2715,-7.5927 -9.0576,-13.3789 -5.7861,-5.7861 -13.3789,-9.0576 -7.5928,-3.2715 -16.2842,-3.2715 -8.6914,0 -16.2842,3.2715 -7.5927,3.2715 -13.3789,9.0576 -5.7861,5.7862 -9.0576,13.3789 -3.27146,7.5928 -3.27146,16.2842 0,8.6914 3.27146,16.2842 3.2715,7.5928 9.0576,13.37891 5.7862,5.786131 13.3789,9.05761 7.5928,3.27149 16.2842,3.27149 z m 0,-14.16016 q -5.7617,0 -10.8154,-2.17285 -5.0537,-2.1729 -8.8623,-5.9814 -3.8086,-3.8086 -5.9815,-8.8623 -2.1728,-5.0538 -2.1728,-10.8155 0,-5.7617 2.1728,-10.8154 2.1729,-5.0537 5.9815,-8.8623 3.8086,-3.8086 8.8623,-5.9815 5.0537,-2.1728 10.8154,-2.1728 5.7617,0 10.8155,2.1728 5.0537,2.1729 8.8623,5.9815 3.8086,3.8086 5.9814,8.8623 2.1729,5.0537 2.1729,10.8154 0,5.7617 -2.1729,10.8155 -2.1728,5.0537 -5.9814,8.8623 -3.8086,3.8085 -8.8623,5.9814 -5.0538,2.17285 -10.8155,2.17285 z M 30.6152,-28.418 q 1.1719,0 1.9776,-0.8056 0.8056,-0.8057 0.8056,-1.9287 v -8.1055 q 0,-1.1231 -0.8056,-1.9287 -0.8057,-0.8057 -1.9776,-0.8057 -1.0742,0 -1.8798,0.8057 -0.8057,0.8056 -0.8057,1.9287 v 8.1055 q 0,1.123 0.8057,1.9287 0.8056,0.8056 1.8798,0.8056 z m 7.2754,8.3985 q 1.1719,0 1.9776,-0.8057 0.8056,-0.8057 0.8056,-1.8799 v -25 q 0,-1.123 -0.8056,-1.9043 -0.8057,-0.7812 -1.9776,-0.7812 -1.123,0 -1.9043,0.7812 -0.7812,0.7813 -0.7812,1.9043 v 25 q 0,1.1231 0.8056,1.9043 0.8057,0.7813 1.8799,0.7813 z m 7.2754,5.1757 q 1.1231,0 1.9287,-0.8056 0.8057,-0.8057 0.8057,-1.9287 V -52.832 q 0,-1.1719 -0.8057,-1.9532 -0.8056,-0.7812 -1.9287,-0.7812 -1.123,0 -1.9043,0.8057 -0.7812,0.8056 -0.7812,1.9287 v 35.2539 q 0,1.123 0.7812,1.9287 0.7813,0.8056 1.9043,0.8056 z m 7.2754,-7.1289 q 1.1231,0 1.9043,-0.8056 0.7813,-0.8057 0.7813,-1.9287 v -20.9961 q 0,-1.1719 -0.7813,-1.9531 -0.7812,-0.7813 -1.9043,-0.7813 -1.123,0 -1.9287,0.8057 -0.8057,0.8056 -0.8057,1.9287 v 20.9961 q 0,1.123 0.8057,1.9287 0.8057,0.8056 1.9287,0.8056 z m 7.2266,3.2227 q 1.123,0 1.9043,-0.7812 0.7812,-0.7813 0.7812,-1.9043 v -27.5391 q 0,-1.1231 -0.7812,-1.9043 -0.7813,-0.7813 -1.9043,-0.7813 -1.1719,0 -1.9532,0.7813 -0.7812,0.7812 -0.7812,1.9043 v 27.5391 q 0,1.123 0.8057,1.9043 0.8056,0.7812 1.9287,0.7812 z m 7.2265,-8.0078 q 1.1231,0 1.9043,-0.8057 0.7813,-0.8056 0.7813,-1.9287 V -40.918 q 0,-1.1718 -0.7813,-1.9531 -0.7812,-0.7812 -1.9043,-0.7812 -1.1718,0 -1.9531,0.8056 -0.7812,0.8057 -0.7812,1.9287 v 11.4258 q 0,1.1719 0.7812,1.9531 0.7813,0.7813 1.9531,0.7813 z"
         id="path1260" />
    </g>
    <g
       id="Heavy-S"
       transform="rotate(90,994.45229,1607.0076)">
      <path
         d="m 48.1934,6.15234 q 8.5937,0 16.0644,-3.22265 7.4707,-3.222659 13.1836,-8.93555 5.7129,-5.71294 8.9356,-13.18364 3.2226,-7.4707 3.2226,-16.0156 0,-8.5449 -3.2226,-16.04 -3.2227,-7.4951 -8.9356,-13.208 -5.7129,-5.7129 -13.208,-8.9356 -7.4951,-3.2226 -16.04,-3.2226 -8.545,0 -16.0157,3.2226 -7.4707,3.2227 -13.1836,8.9356 -5.7129,5.7129 -8.9355,13.208 -3.22266,7.4951 -3.22266,16.04 0,8.5449 3.22266,16.0156 3.2226,7.4707 8.9355,13.18364 5.7129,5.712891 13.208,8.93555 7.4952,3.22265 15.9913,3.22265 z m 0,-12.54882 q -5.9571,0 -11.1817,-2.2461 -5.2246,-2.24612 -9.1553,-6.20122 -3.9306,-3.955 -6.1767,-9.1796 -2.2461,-5.2246 -2.2461,-11.1817 0,-5.957 2.2217,-11.206 2.2217,-5.2491 6.1767,-9.1797 3.9551,-3.9307 9.1797,-6.1768 5.2246,-2.2461 11.1817,-2.2461 6.0058,0 11.2304,2.2461 5.2246,2.2461 9.1553,6.1768 3.9307,3.9306 6.2012,9.1797 2.2705,5.249 2.2705,11.206 0,5.9571 -2.2461,11.1817 -2.2461,5.2246 -6.2012,9.1796 -3.9551,3.9551 -9.1797,6.20122 -5.2246,2.2461 -11.2304,2.2461 z M 29.6875,-28.7109 q 1.1719,0 1.9531,-0.7813 0.7813,-0.7812 0.7813,-1.9043 v -7.666 q 0,-1.123 -0.7813,-1.9043 -0.7812,-0.7812 -1.9531,-0.7812 -1.0742,0 -1.8555,0.7812 -0.7812,0.7813 -0.7812,1.9043 v 7.666 q 0,1.1231 0.7812,1.9043 0.7813,0.7813 1.8555,0.7813 z m 7.4219,8.6425 q 1.123,0 1.9287,-0.7812 0.8057,-0.7813 0.8057,-1.8555 v -25 q 0,-1.123 -0.8057,-1.9043 -0.8057,-0.7812 -1.9287,-0.7812 -1.1231,0 -1.9043,0.7812 -0.7813,0.7813 -0.7813,1.9043 v 25 q 0,1.0742 0.8057,1.8555 0.8057,0.7812 1.8799,0.7812 z m 7.373,6.3477 q 1.1231,0 1.9043,-0.8057 0.7813,-0.8056 0.7813,-1.9287 v -37.5488 q 0,-1.1231 -0.7813,-1.9043 -0.7812,-0.7813 -1.9043,-0.7813 -1.123,0 -1.8799,0.7813 -0.7568,0.7812 -0.7568,1.9043 v 37.5488 q 0,1.1231 0.7568,1.9287 0.7569,0.8057 1.8799,0.8057 z m 7.3731,-8.6426 q 1.123,0 1.9043,-0.7812 0.7812,-0.7813 0.7812,-1.9043 v -20.3614 q 0,-1.123 -0.7812,-1.9043 -0.7813,-0.7812 -1.9043,-0.7812 -1.0743,0 -1.8799,0.8057 -0.8057,0.8056 -0.8057,1.8798 v 20.3614 q 0,1.123 0.8057,1.9043 0.8056,0.7812 1.8799,0.7812 z m 7.373,4.4434 q 1.1231,0 1.8799,-0.7569 0.7568,-0.7568 0.7568,-1.8798 v -29.3457 q 0,-1.1231 -0.7568,-1.8799 -0.7568,-0.7569 -1.8799,-0.7569 -1.1719,0 -1.9287,0.7569 -0.7568,0.7568 -0.7568,1.8799 v 29.3457 q 0,1.123 0.7812,1.8798 0.7813,0.7569 1.9043,0.7569 z m 7.3731,-9.1309 q 1.123,0 1.8798,-0.7812 0.7569,-0.7813 0.7569,-1.9043 v -10.9864 q 0,-1.1718 -0.7569,-1.9287 -0.7568,-0.7568 -1.8798,-0.7568 -1.1719,0 -1.9287,0.7812 -0.7569,0.7813 -0.7569,1.9043 v 10.9864 q 0,1.1718 0.7569,1.9287 0.7568,0.7568 1.9287,0.7568 z"
         id="path1263" />
    </g>
    <g
       id="Bold-S"
       transform="rotate(90,845.77079,1458.978)">
      <path
         d="m 47.5586,5.46875 q 8.3984,0 15.7471,-3.17383 7.3486,-3.173826 12.9638,-8.81347 5.6153,-5.63965 8.8135,-12.98825 3.1982,-7.3487 3.1982,-15.7471 0,-8.3496 -3.1982,-15.7227 -3.1982,-7.373 -8.8135,-12.9882 -5.6152,-5.6153 -12.9883,-8.7891 -7.373,-3.1738 -15.7714,-3.1738 -8.3496,0 -15.7227,3.1738 -7.373,3.1738 -12.9639,8.7891 -5.5908,5.6152 -8.789,12.9882 -3.19826,7.3731 -3.19826,15.7227 0,8.3984 3.19826,15.7471 3.1982,7.3486 8.8135,12.98825 5.6152,5.639644 12.9638,8.81347 7.3487,3.17383 15.7471,3.17383 z m 0,-10.79102 q -6.2012,0 -11.6211,-2.31933 -5.4199,-2.31934 -9.5215,-6.4209 -4.1015,-4.1016 -6.4209,-9.5459 -2.3193,-5.4443 -2.3193,-11.6455 0,-6.2012 2.3193,-11.6211 2.3194,-5.4199 6.3965,-9.5215 4.0772,-4.1015 9.4971,-6.4209 5.4199,-2.3193 11.6211,-2.3193 6.25,0 11.6699,2.3193 5.4199,2.3194 9.5215,6.4209 4.1015,4.1016 6.4209,9.5215 2.3193,5.4199 2.3193,11.6211 0,6.2012 -2.3193,11.6455 -2.3194,5.4443 -6.3965,9.5459 -4.0772,4.10156 -9.5215,6.4209 -5.4443,2.31933 -11.6455,2.31933 z M 28.7109,-29.0039 q 1.1231,0 1.9043,-0.7813 0.7813,-0.7812 0.7813,-1.8554 v -7.2266 q 0,-1.0742 -0.7813,-1.8555 -0.7812,-0.7812 -1.9043,-0.7812 -1.0742,0 -1.8554,0.7812 -0.7813,0.7813 -0.7813,1.8555 v 7.2266 q 0,1.0742 0.7813,1.8554 0.7812,0.7813 1.8554,0.7813 z m 7.5196,8.8867 q 1.123,0 1.9043,-0.7812 0.7812,-0.7813 0.7812,-1.8555 v -25 q 0,-1.0742 -0.7812,-1.8555 -0.7813,-0.7812 -1.9043,-0.7812 -1.0743,0 -1.8555,0.7812 -0.7812,0.7813 -0.7812,1.8555 v 25 q 0,1.0742 0.7812,1.8555 0.7812,0.7812 1.8555,0.7812 z M 43.75,-12.5 q 1.123,0 1.8799,-0.7812 0.7568,-0.7813 0.7568,-1.9043 v -40.1368 q 0,-1.123 -0.7568,-1.8798 -0.7569,-0.7569 -1.8799,-0.7569 -1.0742,0 -1.8555,0.7813 -0.7812,0.7812 -0.7812,1.8554 v 40.1368 q 0,1.123 0.7568,1.9043 Q 42.627,-12.5 43.75,-12.5 Z m 7.5195,-10.3027 q 1.1231,0 1.8799,-0.7813 0.7568,-0.7812 0.7568,-1.8555 v -19.6289 q 0,-1.123 -0.7568,-1.8798 -0.7568,-0.7569 -1.8799,-0.7569 -1.123,0 -1.8799,0.7813 -0.7568,0.7812 -0.7568,1.8554 v 19.6289 q 0,1.0743 0.7568,1.8555 0.7569,0.7813 1.8799,0.7813 z m 7.4707,5.8593 q 1.1231,0 1.8799,-0.7568 0.7569,-0.7568 0.7569,-1.8799 v -31.3476 q 0,-1.1231 -0.7569,-1.8799 -0.7568,-0.7569 -1.8799,-0.7569 -1.123,0 -1.8798,0.7569 -0.7569,0.7568 -0.7569,1.8799 v 31.3476 q 0,1.1231 0.7813,1.8799 0.7812,0.7568 1.8554,0.7568 z m 7.5196,-10.4004 q 1.123,0 1.8798,-0.7812 0.7569,-0.7812 0.7569,-1.9043 v -10.4492 q 0,-1.1719 -0.7569,-1.9287 -0.7568,-0.7569 -1.8798,-0.7569 -1.1231,0 -1.8799,0.7813 -0.7569,0.7812 -0.7569,1.9043 v 10.4492 q 0,1.1231 0.7569,1.9043 0.7568,0.7812 1.8799,0.7812 z"
         id="path1266" />
    </g>
    <g
       id="Semibold-S"
       transform="rotate(90,697.16416,1310.8487)">
      <path
         d="m 47.0703,4.98047 q 8.3008,0 15.5762,-3.125 7.2754,-3.125 12.8174,-8.71582 5.542,-5.59085 8.6914,-12.86625 3.1494,-7.2754 3.1494,-15.5273 0,-8.252 -3.1494,-15.5273 -3.1494,-7.2754 -8.7158,-12.8418 -5.5665,-5.5665 -12.8418,-8.7159 -7.2754,-3.1494 -15.5762,-3.1494 -8.252,0 -15.5274,3.1494 -7.2753,3.1494 -12.8173,8.7159 -5.542,5.5664 -8.69145,12.8418 -3.14941,7.2753 -3.14941,15.5273 0,8.2519 3.14941,15.5273 3.14945,7.2754 8.71585,12.86625 5.5664,5.59082 12.8418,8.71582 7.2754,3.125 15.5273,3.125 z m 0,-9.57031 q -6.3476,0 -11.9141,-2.36817 -5.5664,-2.36816 -9.7656,-6.56739 -4.1992,-4.1992 -6.5674,-9.7656 -2.3681,-5.5664 -2.3681,-11.9629 0,-6.3477 2.3681,-11.9141 2.3682,-5.5664 6.543,-9.7656 4.1748,-4.1992 9.7412,-6.5918 5.5664,-2.3926 11.9141,-2.3926 6.3965,0 11.9629,2.3926 5.5664,2.3926 9.7656,6.5918 4.1992,4.1992 6.5918,9.7656 2.3926,5.5664 2.3926,11.9141 0,6.3965 -2.3682,11.9629 -2.3682,5.5664 -6.5674,9.7656 -4.1992,4.19923 -9.7656,6.56739 -5.5664,2.36817 -11.9629,2.36817 z M 27.9785,-29.1992 q 1.1231,0 1.8799,-0.7813 0.7568,-0.7812 0.7568,-1.8554 v -6.836 q 0,-1.0742 -0.7568,-1.8554 -0.7568,-0.7813 -1.8799,-0.7813 -1.0742,0 -1.831,0.7813 -0.7569,0.7812 -0.7569,1.8554 v 6.836 q 0,1.0742 0.7569,1.8554 0.7568,0.7813 1.831,0.7813 z m 7.6172,9.0332 q 1.1231,0 1.8799,-0.7569 0.7568,-0.7568 0.7568,-1.831 v -25 q 0,-1.0742 -0.7568,-1.8311 -0.7568,-0.7568 -1.8799,-0.7568 -1.0742,0 -1.8311,0.7568 -0.7568,0.7569 -0.7568,1.8311 v 25 q 0,1.0742 0.7568,1.831 0.7569,0.7569 1.8311,0.7569 z m 7.6172,8.4961 q 1.123,0 1.8799,-0.7569 0.7568,-0.7568 0.7568,-1.831 v -41.9434 q 0,-1.123 -0.7568,-1.8799 -0.7569,-0.7568 -1.8799,-0.7568 -1.0742,0 -1.8311,0.7813 -0.7568,0.7812 -0.7568,1.8554 v 41.9434 q 0,1.123 0.7324,1.8555 0.7324,0.7324 1.8555,0.7324 z m 7.5683,-11.4258 q 1.1231,0 1.8799,-0.7568 0.7569,-0.7569 0.7569,-1.8311 v -19.1406 q 0,-1.0742 -0.7569,-1.8555 -0.7568,-0.7812 -1.8799,-0.7812 -1.0742,0 -1.831,0.7812 -0.7568,0.7813 -0.7568,1.8555 v 19.1406 q 0,1.0742 0.7568,1.8311 0.7568,0.7568 1.831,0.7568 z m 7.6172,6.7871 q 1.1231,0 1.8799,-0.7324 0.7569,-0.7324 0.7569,-1.8067 v -32.8125 q 0,-1.0742 -0.7569,-1.831 -0.7568,-0.7568 -1.8799,-0.7568 -1.123,0 -1.8554,0.7568 -0.7325,0.7568 -0.7325,1.831 v 32.8125 q 0,1.0743 0.7569,1.8067 0.7568,0.7324 1.831,0.7324 z m 7.6172,-11.2305 q 1.1231,0 1.8555,-0.7568 0.7324,-0.7568 0.7324,-1.8799 V -40.332 q 0,-1.1231 -0.7324,-1.8799 -0.7324,-0.7569 -1.8555,-0.7569 -1.123,0 -1.8799,0.7813 -0.7568,0.7813 -0.7568,1.8555 v 10.1562 q 0,1.0742 0.7568,1.8555 0.7569,0.7812 1.8799,0.7812 z"
         id="path1269" />
    </g>
    <g
       id="Medium-S"
       transform="rotate(90,548.63807,1162.6717)">
      <path
         d="m 46.7285,4.63867 q 8.2031,0 15.4053,-3.125 7.2021,-3.125 12.7197,-8.64258 5.5176,-5.51759 8.6426,-12.71969 3.125,-7.2022 3.125,-15.4053 0,-8.1543 -3.125,-15.3809 -3.125,-7.2265 -8.667,-12.7441 -5.542,-5.5176 -12.7441,-8.6182 -7.2022,-3.1006 -15.4053,-3.1006 -8.2031,0 -15.4053,3.1006 -7.2021,3.1006 -12.6953,8.6182 -5.4932,5.5176 -8.61816,12.7441 -3.125,7.2266 -3.125,15.3809 0,8.2031 3.125,15.4053 3.12496,7.2021 8.64256,12.71969 5.5176,5.51758 12.7197,8.64258 7.2022,3.125 15.4053,3.125 z m 0,-8.64258 q -6.4941,0 -12.1582,-2.41699 -5.6641,-2.41699 -9.9365,-6.7139 -4.2725,-4.2968 -6.6895,-9.9609 -2.417,-5.6641 -2.417,-12.1582 0,-6.4941 2.3926,-12.1582 2.3926,-5.6641 6.6651,-9.9609 4.2724,-4.2969 9.9365,-6.7139 5.664,-2.417 12.1582,-2.417 6.4941,0 12.1582,2.417 5.6641,2.417 9.9609,6.7139 4.2969,4.2968 6.7139,9.9609 2.417,5.6641 2.417,12.1582 0,6.4941 -2.417,12.1582 -2.417,5.6641 -6.665,9.9609 -4.2481,4.29691 -9.9366,6.7139 -5.6884,2.41699 -12.1826,2.41699 z M 27.4902,-29.3945 q 1.1231,0 1.8555,-0.7569 0.7324,-0.7568 0.7324,-1.7822 v -6.6406 q 0,-1.0254 -0.7324,-1.8067 -0.7324,-0.7812 -1.8555,-0.7812 -1.0742,0 -1.831,0.7812 -0.7569,0.7813 -0.7569,1.8067 v 6.6406 q 0,1.0254 0.7569,1.7822 0.7568,0.7569 1.831,0.7569 z m 7.7149,9.2285 q 1.0742,0 1.8066,-0.7813 0.7324,-0.7812 0.7324,-1.8554 v -25 q 0,-1.0254 -0.7324,-1.7823 -0.7324,-0.7568 -1.8066,-0.7568 -1.1231,0 -1.8799,0.7568 -0.7568,0.7569 -0.7568,1.7823 v 25 q 0,1.123 0.7812,1.8798 0.7813,0.7569 1.8555,0.7569 z m 7.666,9.1797 q 1.0742,0 1.8066,-0.7813 0.7325,-0.7812 0.7325,-1.8554 v -43.2618 q 0,-1.0742 -0.7325,-1.831 -0.7324,-0.7569 -1.8066,-0.7569 -1.0742,0 -1.8555,0.7569 -0.7812,0.7568 -0.7812,1.831 v 43.2618 q 0,1.123 0.7568,1.8798 0.7568,0.7569 1.8799,0.7569 z m 7.6172,-12.3047 q 1.123,0 1.8799,-0.7569 0.7568,-0.7568 0.7568,-1.831 v -18.7988 q 0,-1.0254 -0.7568,-1.7823 -0.7569,-0.7568 -1.8799,-0.7568 -1.0742,0 -1.8311,0.7568 -0.7568,0.7569 -0.7568,1.7823 v 18.7988 q 0,1.0742 0.7568,1.831 0.7569,0.7569 1.8311,0.7569 z m 7.666,7.5195 q 1.123,0 1.8799,-0.7568 0.7568,-0.7569 0.7568,-1.8311 v -33.8379 q 0,-1.0742 -0.7568,-1.8066 -0.7569,-0.7324 -1.8799,-0.7324 -1.0742,0 -1.8311,0.7324 -0.7568,0.7324 -0.7568,1.8066 v 33.8379 q 0,1.0742 0.7568,1.8311 0.7569,0.7568 1.8311,0.7568 z m 7.7148,-11.9629 q 1.1231,0 1.8555,-0.7324 0.7324,-0.7324 0.7324,-1.8555 v -9.8632 q 0,-1.1231 -0.7324,-1.8799 -0.7324,-0.7569 -1.8555,-0.7569 -1.0742,0 -1.8554,0.7813 -0.7813,0.7812 -0.7813,1.8555 v 9.8632 q 0,1.0743 0.7813,1.8311 0.7812,0.7568 1.8554,0.7568 z"
         id="path1272" />
    </g>
    <g
       id="Regular-S"
       transform="rotate(90,400.04729,1014.5351)">
      <path
         d="m 46.2402,4.15039 q 8.1055,0 15.2344,-3.07617 7.1289,-3.07617 12.5733,-8.54492 5.4443,-5.4688 8.5449,-12.5977 3.1006,-7.1289 3.1006,-15.1855 0,-8.0566 -3.1006,-15.1856 -3.1006,-7.1289 -8.5694,-12.5976 -5.4687,-5.4688 -12.5976,-8.5449 -7.1289,-3.0762 -15.2344,-3.0762 -8.0566,0 -15.1855,3.0762 -7.1289,3.0761 -12.5489,8.5449 -5.4199,5.4687 -8.52048,12.5976 -3.10058,7.129 -3.10058,15.1856 0,8.0566 3.10058,15.1855 3.10058,7.1289 8.54488,12.5977 5.4444,5.46875 12.5733,8.54492 7.1289,3.07617 15.1855,3.07617 z m 0,-7.42187 q -6.6406,0 -12.4267,-2.46582 -5.7862,-2.46582 -10.1563,-6.8604 -4.3701,-4.3945 -6.8359,-10.205 -2.4658,-5.8106 -2.4658,-12.4512 0,-6.6406 2.4414,-12.4512 2.4414,-5.8105 6.8115,-10.2051 4.3701,-4.3945 10.1562,-6.8603 5.7862,-2.4658 12.4268,-2.4658 6.6895,0 12.4756,2.4658 5.7861,2.4658 10.1807,6.8603 4.3945,4.3946 6.8847,10.2051 2.4903,5.8106 2.4903,12.4512 0,6.6406 -2.4659,12.4512 -2.4658,5.8105 -6.8359,10.205 -4.3701,4.39458 -10.1807,6.8604 -5.8105,2.46582 -12.5,2.46582 z M 26.7578,-29.5898 q 1.1231,0 1.8555,-0.7569 0.7324,-0.7568 0.7324,-1.7822 v -6.2988 q 0,-1.0254 -0.7324,-1.7823 -0.7324,-0.7568 -1.8555,-0.7568 -1.0742,0 -1.8066,0.7568 -0.7324,0.7569 -0.7324,1.7823 v 6.2988 q 0,1.0254 0.7324,1.7822 0.7324,0.7569 1.8066,0.7569 z m 7.8125,9.375 q 1.0742,0 1.8067,-0.7569 0.7324,-0.7568 0.7324,-1.831 v -25 q 0,-1.0254 -0.7324,-1.7823 -0.7325,-0.7568 -1.8067,-0.7568 -1.0742,0 -1.831,0.7568 -0.7569,0.7569 -0.7569,1.7823 v 25 q 0,1.0742 0.7569,1.831 0.7568,0.7569 1.831,0.7569 z m 7.7637,10.0586 q 1.0742,0 1.8066,-0.7569 0.7324,-0.7568 0.7324,-1.831 v -45.0196 q 0,-1.0742 -0.7324,-1.831 -0.7324,-0.7569 -1.8066,-0.7569 -1.0742,0 -1.8311,0.7569 -0.7568,0.7568 -0.7568,1.831 v 45.0196 q 0,1.123 0.7324,1.8554 0.7324,0.7325 1.8555,0.7325 z m 7.7148,-13.4278 q 1.1231,0 1.8555,-0.7568 0.7324,-0.7569 0.7324,-1.7822 v -18.3106 q 0,-1.0254 -0.7324,-1.7822 -0.7324,-0.7569 -1.8555,-0.7569 -1.0742,0 -1.8066,0.7569 -0.7324,0.7568 -0.7324,1.7822 v 18.3106 q 0,1.0253 0.7324,1.7822 0.7324,0.7568 1.8066,0.7568 z m 7.7637,8.4473 q 1.123,0 1.8555,-0.7324 0.7324,-0.7325 0.7324,-1.8067 v -35.2051 q 0,-1.0742 -0.7324,-1.8066 -0.7325,-0.7324 -1.8555,-0.7324 -1.0742,0 -1.8066,0.7324 -0.7325,0.7324 -0.7325,1.8066 v 35.2051 q 0,1.0742 0.7325,1.8067 0.7324,0.7324 1.8066,0.7324 z m 7.8125,-12.793 q 1.123,0 1.8311,-0.7324 0.708,-0.7324 0.708,-1.8555 v -9.5215 q 0,-1.123 -0.708,-1.8554 -0.7081,-0.7325 -1.8311,-0.7325 -1.0742,0 -1.8311,0.7569 -0.7568,0.7568 -0.7568,1.831 v 9.5215 q 0,1.0742 0.7568,1.8311 0.7569,0.7568 1.8311,0.7568 z"
         id="path1275" />
    </g>
    <g
       id="Light-S"
       transform="rotate(90,251.32591,866.54432)">
      <path
         d="m 45.5078,3.41797 q 7.959,0 14.9658,-3.002931 7.0069,-3.002929 12.3535,-8.374019 5.3467,-5.37112 8.3741,-12.35352 3.0273,-6.9824 3.0273,-14.9414 0,-7.959 -3.0273,-14.9414 -3.0274,-6.9824 -8.3985,-12.3535 -5.3711,-5.3711 -12.3535,-8.3741 -6.9824,-3.0029 -14.9902,-3.0029 -7.9102,0 -14.917,3.0029 -7.0068,3.003 -12.3291,8.3741 -5.3223,5.3711 -8.34962,12.3535 -3.02734,6.9824 -3.02734,14.9414 0,7.959 3.02734,14.9414 3.02732,6.9824 8.37402,12.35352 5.3467,5.37109 12.3535,8.374019 7.0069,3.002931 14.917,3.002931 z m 0,-5.71289 q -6.8359,0 -12.8174,-2.53906 -5.9814,-2.53907 -10.498,-7.08012 -4.5166,-4.541 -7.0557,-10.5224 -2.539,-5.9815 -2.539,-12.8174 0,-6.8359 2.539,-12.8174 2.5391,-5.9814 7.0557,-10.5225 4.5166,-4.541 10.4736,-7.08 5.957,-2.5391 12.793,-2.5391 6.8848,0 12.8662,2.5391 5.9814,2.539 10.498,7.08 4.5166,4.5411 7.1045,10.5225 2.5879,5.9815 2.5879,12.8174 0,6.8359 -2.5635,12.8174 -2.5634,5.9814 -7.08,10.5224 -4.5166,4.54105 -10.4981,7.08012 -5.9814,2.53906 -12.8662,2.53906 z M 26.0742,-29.6875 q 0.8789,0 1.4893,-0.6104 0.6103,-0.6103 0.6103,-1.4404 v -7.1777 q 0,-0.8301 -0.6103,-1.416 -0.6104,-0.586 -1.4893,-0.586 -0.8789,0 -1.4648,0.586 -0.586,0.5859 -0.586,1.416 v 7.1777 q 0,0.8301 0.586,1.4404 0.5859,0.6104 1.4648,0.6104 z m 7.7637,9.082 q 0.8789,0 1.4892,-0.5859 0.6104,-0.5859 0.6104,-1.4648 V -47.998 q 0,-0.8301 -0.6104,-1.4405 -0.6103,-0.6103 -1.4892,-0.6103 -0.8301,0 -1.4404,0.6103 -0.6104,0.6104 -0.6104,1.4405 v 25.3418 q 0,0.8789 0.6104,1.4648 0.6103,0.5859 1.4404,0.5859 z m 7.7637,10.3028 q 0.8789,0 1.4648,-0.586 0.5859,-0.5859 0.5859,-1.4648 V -58.252 q 0,-0.8789 -0.5859,-1.4648 -0.5859,-0.5859 -1.4648,-0.5859 -0.8789,0 -1.4649,0.5859 -0.5859,0.5859 -0.5859,1.4648 v 45.8985 q 0,0.8789 0.5859,1.4648 0.586,0.586 1.4649,0.586 z m 7.7148,-13.086 q 0.9277,0 1.5137,-0.6103 0.5859,-0.6104 0.5859,-1.4405 V -45.166 q 0,-0.8789 -0.5859,-1.4649 -0.586,-0.5859 -1.5137,-0.5859 -0.8301,0 -1.416,0.5859 -0.5859,0.586 -0.5859,1.4649 v 19.7265 q 0,0.8301 0.5859,1.4405 0.5859,0.6103 1.416,0.6103 z m 7.7637,7.4219 q 0.9277,0 1.5137,-0.6103 0.5859,-0.6104 0.5859,-1.4405 v -34.5703 q 0,-0.8789 -0.5859,-1.4648 -0.586,-0.586 -1.5137,-0.586 -0.8789,0 -1.4649,0.586 -0.5859,0.5859 -0.5859,1.4648 v 34.5703 q 0,0.8301 0.5859,1.4405 0.586,0.6103 1.4649,0.6103 z m 7.8125,-11.5723 q 0.9277,0 1.4892,-0.5859 0.5616,-0.5859 0.5616,-1.4648 v -11.4258 q 0,-0.9278 -0.5616,-1.5137 -0.5615,-0.5859 -1.4892,-0.5859 -0.8789,0 -1.4893,0.6103 -0.6103,0.6104 -0.6103,1.4893 v 11.4258 q 0,0.83 0.6103,1.4404 0.6104,0.6103 1.4893,0.6103 z"
         id="path1278" />
    </g>
    <g
       id="Thin-S"
       transform="rotate(90,102.48938,718.67791)">
      <path
         d="m 44.5312,2.44141 q 7.8126,0 14.6241,-2.929691 6.8115,-2.929689 12.0361,-8.154299 5.2246,-5.22462 8.1543,-12.03612 2.9297,-6.8115 2.9297,-14.5752 0,-7.7637 -2.9297,-14.5752 -2.9297,-6.8115 -8.1543,-12.0361 -5.2246,-5.2246 -12.0361,-8.1543 -6.8115,-2.9297 -14.6241,-2.9297 -7.7636,0 -14.5996,2.9297 -6.8359,2.9297 -12.0117,8.1543 -5.1758,5.2246 -8.12986,12.0361 -2.9541,6.8115 -2.9541,14.5752 0,7.7637 2.9541,14.5752 2.95406,6.8115 8.12986,12.03612 5.1758,5.22461 12.0117,8.154299 6.836,2.929691 14.5996,2.929691 z m 0,-3.369144 q -7.08,0 -13.3056,-2.661136 Q 25,-6.25 20.2881,-10.9619 q -4.7119,-4.7119 -7.3731,-10.9619 -2.6611,-6.25 -2.6611,-13.3301 0,-7.0801 2.6611,-13.3301 2.6612,-6.25 7.3731,-10.9619 4.7119,-4.7119 10.9375,-7.373 6.2256,-2.6612 13.3056,-2.6612 7.129,0 13.3545,2.6612 6.2256,2.6611 10.9375,7.373 4.712,4.7119 7.3731,10.9619 2.6611,6.25 2.6611,13.3301 0,7.0801 -2.6611,13.3301 -2.6611,6.25 -7.3731,10.9619 -4.7119,4.7119 -10.9375,7.37303 -6.2255,2.661136 -13.3545,2.661136 z M 25.1465,-29.7363 q 0.6347,0 1.0254,-0.4151 0.3906,-0.415 0.3906,-0.9521 v -8.3496 q 0,-0.586 -0.3906,-0.9766 -0.3907,-0.3906 -1.0254,-0.3906 -0.586,0 -0.9766,0.3906 -0.3906,0.3906 -0.3906,0.9766 v 8.3496 q 0,0.5371 0.3906,0.9521 0.3906,0.4151 0.9766,0.4151 z m 7.8125,8.7402 q 0.5859,0 0.9765,-0.415 0.3907,-0.4151 0.3907,-1.001 v -25.7324 q 0,-0.6348 -0.3907,-1.0254 -0.3906,-0.3906 -0.9765,-0.3906 -0.586,0 -1.001,0.3906 -0.415,0.3906 -0.415,1.0254 v 25.7324 q 0,0.5859 0.415,1.001 0.415,0.415 1.001,0.415 z m 7.7148,10.5957 q 0.586,0 1.001,-0.3906 0.415,-0.3906 0.415,-0.9766 v -47.0703 q 0,-0.5859 -0.415,-0.9766 -0.415,-0.3906 -1.001,-0.3906 -0.5859,0 -1.0009,0.3906 -0.4151,0.3907 -0.4151,0.9766 v 47.0703 q 0,0.586 0.4151,0.9766 0.415,0.3906 1.0009,0.3906 z m 7.7637,-12.6953 q 0.5859,0 1.001,-0.3906 0.415,-0.3907 0.415,-0.9766 v -21.6309 q 0,-0.5859 -0.415,-0.9765 -0.4151,-0.3906 -1.001,-0.3906 -0.5859,0 -1.001,0.3906 -0.415,0.3906 -0.415,0.9765 v 21.6309 q 0,0.5859 0.415,0.9766 0.4151,0.3906 1.001,0.3906 z m 7.7148,6.0547 q 0.6348,0 1.0254,-0.3906 0.3907,-0.3907 0.3907,-0.9766 v -33.7402 q 0,-0.586 -0.3907,-0.9766 -0.3906,-0.3906 -1.0254,-0.3906 -0.5859,0 -0.9765,0.3906 -0.3906,0.3906 -0.3906,0.9766 v 33.7402 q 0,0.5859 0.3906,0.9766 0.3906,0.3906 0.9765,0.3906 z m 7.7637,-9.8633 q 0.6348,0 1.0254,-0.415 0.3906,-0.4151 0.3906,-1.0498 v -13.8672 q 0,-0.6348 -0.3906,-1.0254 -0.3906,-0.3906 -1.0254,-0.3906 -0.5859,0 -0.9765,0.3906 -0.3907,0.3906 -0.3907,1.0254 v 13.8672 q 0,0.6347 0.3907,1.0498 0.3906,0.415 0.9765,0.415 z"
         id="path1281" />
    </g>
    <g
       id="Ultralight-S"
       transform="rotate(90,-46.114812,570.5699)">
      <path
         d="m 44.043,1.95312 q 7.7148,0 14.4287,-2.880854 6.7138,-2.880856 11.8652,-8.032226 5.1514,-5.15134 8.0567,-11.86524 2.9052,-6.7139 2.9052,-14.4287 0,-7.7149 -2.9052,-14.4287 -2.9053,-6.7139 -8.0567,-11.8653 -5.1514,-5.1513 -11.8652,-8.0322 -6.7139,-2.8808 -14.4287,-2.8808 -7.666,0 -14.4043,2.8808 -6.7383,2.8809 -11.8653,8.0322 -5.1269,5.1514 -8.03219,11.8653 -2.90527,6.7138 -2.90527,14.4287 0,7.7148 2.90527,14.4287 2.90529,6.7139 8.03219,11.86524 5.127,5.15137 11.8653,8.032226 Q 36.377,1.95312 44.043,1.95312 Z m 0,-2.246089 q -7.2266,0 -13.5742,-2.709961 -6.3477,-2.70996 -11.1573,-7.51957 -4.8095,-4.8095 -7.5439,-11.1572 -2.7344,-6.3476 -2.7344,-13.5742 0,-7.2266 2.7344,-13.5742 2.7344,-6.3477 7.5439,-11.1573 4.8096,-4.8095 11.1573,-7.5195 6.3476,-2.7099 13.5742,-2.7099 7.2265,0 13.5986,2.7099 6.3721,2.71 11.1572,7.5195 4.7852,4.8096 7.5196,11.1573 2.7343,6.3476 2.7343,13.5742 0,7.2266 -2.7099,13.5742 -2.71,6.3477 -7.5196,11.1572 -4.8095,4.80961 -11.1572,7.51957 -6.3476,2.709961 -13.623,2.709961 z M 24.6582,-29.834 q 0.4883,0 0.8057,-0.293 0.3173,-0.2929 0.3173,-0.7324 v -8.9355 q 0,-0.4395 -0.3173,-0.7324 -0.3174,-0.293 -0.8057,-0.293 -0.4394,0 -0.7324,0.293 -0.293,0.2929 -0.293,0.7324 v 8.9355 q 0,0.4395 0.293,0.7324 0.293,0.293 0.7324,0.293 z m 7.7637,8.5449 q 0.4883,0 0.8056,-0.2929 0.3174,-0.293 0.3174,-0.7813 V -48.291 q 0,-0.4883 -0.3174,-0.7813 -0.3173,-0.2929 -0.8056,-0.2929 -0.4395,0 -0.7324,0.2929 -0.293,0.293 -0.293,0.7813 v 25.9277 q 0,0.4883 0.293,0.7813 0.2929,0.2929 0.7324,0.2929 z m 7.7148,10.7911 q 0.4883,0 0.8057,-0.293 0.3174,-0.293 0.3174,-0.7324 v -47.6563 q 0,-0.4394 -0.3174,-0.7324 -0.3174,-0.293 -0.8057,-0.293 -0.4394,0 -0.7324,0.293 -0.293,0.293 -0.293,0.7324 v 47.6563 q 0,0.4394 0.293,0.7324 0.293,0.293 0.7324,0.293 z m 7.7637,-12.5 q 0.4883,0 0.8057,-0.293 0.3173,-0.293 0.3173,-0.7324 v -22.6075 q 0,-0.4882 -0.3173,-0.7568 -0.3174,-0.2685 -0.8057,-0.2685 -0.4395,0 -0.7324,0.2685 -0.293,0.2686 -0.293,0.7568 v 22.6075 q 0,0.4394 0.293,0.7324 0.2929,0.293 0.7324,0.293 z m 7.7148,5.371 q 0.4883,0 0.8057,-0.3173 0.3174,-0.3174 0.3174,-0.7569 V -52.002 q 0,-0.4394 -0.3174,-0.7324 -0.3174,-0.2929 -0.8057,-0.2929 -0.4394,0 -0.7324,0.2929 -0.293,0.293 -0.293,0.7324 v 33.3008 q 0,0.4395 0.293,0.7569 0.293,0.3173 0.7324,0.3173 z m 7.8125,-9.0332 q 0.4883,0 0.7813,-0.2929 0.293,-0.293 0.293,-0.7813 v -15.1855 q 0,-0.4883 -0.293,-0.7813 -0.293,-0.2929 -0.7813,-0.2929 -0.4394,0 -0.7568,0.2929 -0.3174,0.293 -0.3174,0.7813 v 15.1855 q 0,0.4395 0.3174,0.7569 0.3174,0.3173 0.7568,0.3173 z"
         id="path1284" />
    </g>
  </g>
</svg>
